<svg xmlns="http://www.w3.org/2000/svg">
    <symbol width="24" height="24" viewBox="0 0 24 24" id="star-icon">
        <mask id="mask0_17_2281" style="mask-type:alpha" maskUnits="userSpaceOnUse" x="0" y="0" width="24" height="24">
        <rect width="24" height="24"/>
        </mask>
        <g mask="url(#mask0_17_2281)">
        <path d="M6.575 19.9615L8.00775 13.7922L3.22125 9.64424L9.5365 9.09624L12 3.27899L14.4635 9.09624L20.7788 9.64424L15.9923 13.7922L17.425 19.9615L12 16.6885L6.575 19.9615Z"/>
        </g>
    </symbol>

    <symbol width="24" height="24" viewBox="0 0 24 24" id="check-icon">
        <mask id="mask0_40002147_9442" style="mask-type:alpha" maskUnits="userSpaceOnUse" x="0" y="0" width="24" height="24">
        <rect width="24" height="24"/>
        </mask>
        <g mask="url(#mask0_40002147_9442)">
        <path d="M9.54995 17.6537L4.21545 12.3192L5.28445 11.25L9.54995 15.5155L18.7155 6.34998L19.7845 7.41923L9.54995 17.6537Z"/>
        </g>
    </symbol>

    <symbol width="24" height="24" viewBox="0 0 24 24" id="speed-truck-icon">
        <mask id="mask0_40002133_653" style="mask-type:alpha" maskUnits="userSpaceOnUse" x="0" y="0" width="24" height="24">
        <rect width="24" height="24"/>
        </mask>
        <g mask="url(#mask0_40002133_653)">
        <path d="M7.25005 19.5C6.48722 19.5 5.83821 19.2323 5.30305 18.697C4.76771 18.1618 4.50005 17.5128 4.50005 16.75H2.1348L2.4693 15.25H5.01555C5.24755 14.8692 5.56005 14.5657 5.95305 14.3395C6.34588 14.1132 6.77821 14 7.25005 14C7.72188 14 8.1543 14.1132 8.5473 14.3395C8.94013 14.5657 9.25263 14.8692 9.4848 15.25H13.8808L16.029 6H5.07905L5.14055 5.7385C5.21488 5.37433 5.39271 5.07692 5.67405 4.84625C5.95555 4.61542 6.28663 4.5 6.6673 4.5H17.9038L17.0365 8.25H19.5385L22.3943 12.0578L21.4615 16.75H19.8845C19.8845 17.5128 19.617 18.1618 19.0818 18.697C18.5465 19.2323 17.8975 19.5 17.1348 19.5C16.372 19.5 15.7229 19.2323 15.1875 18.697C14.6524 18.1618 14.3848 17.5128 14.3848 16.75H10C10 17.5128 9.73238 18.1618 9.19705 18.697C8.66188 19.2323 8.01288 19.5 7.25005 19.5ZM15.9058 13.125H20.6443L20.7828 12.4173L18.7885 9.75H16.6923L15.9058 13.125ZM15.8828 6.5885L16.029 6L13.8808 15.25L14.027 14.6615L15.8828 6.5885ZM1.08655 13.1615L1.46155 11.6615H6.45205L6.07705 13.1615H1.08655ZM3.08655 9.5885L3.46155 8.0885H9.45205L9.07705 9.5885H3.08655ZM7.25005 18C7.59755 18 7.89272 17.8785 8.13555 17.6355C8.37855 17.3927 8.50005 17.0975 8.50005 16.75C8.50005 16.4025 8.37855 16.1073 8.13555 15.8645C7.89272 15.6215 7.59755 15.5 7.25005 15.5C6.90255 15.5 6.60738 15.6215 6.36455 15.8645C6.12155 16.1073 6.00005 16.4025 6.00005 16.75C6.00005 17.0975 6.12155 17.3927 6.36455 17.6355C6.60738 17.8785 6.90255 18 7.25005 18ZM17.1348 18C17.4821 18 17.7773 17.8785 18.0203 17.6355C18.2633 17.3927 18.3848 17.0975 18.3848 16.75C18.3848 16.4025 18.2633 16.1073 18.0203 15.8645C17.7773 15.6215 17.4821 15.5 17.1348 15.5C16.7873 15.5 16.492 15.6215 16.249 15.8645C16.006 16.1073 15.8845 16.4025 15.8845 16.75C15.8845 17.0975 16.006 17.3927 16.249 17.6355C16.492 17.8785 16.7873 18 17.1348 18Z"/>
        </g>
    </symbol>

    <symbol width="24" height="24" viewBox="0 0 24 24" id="replay-icon">
        <mask id="mask0_40002133_655" style="mask-type:alpha" maskUnits="userSpaceOnUse" x="0" y="0" width="24" height="24">
        <rect width="24" height="24"/>
        </mask>
        <g mask="url(#mask0_40002133_655)">
        <path d="M12 21.5C10.8205 21.5 9.71542 21.2769 8.68475 20.8307C7.65392 20.3846 6.75517 19.7782 5.9885 19.0115C5.22183 18.2448 4.61542 17.3461 4.16925 16.3152C3.72308 15.2846 3.5 14.1795 3.5 13H5C5 14.95 5.67917 16.6042 7.0375 17.9625C8.39583 19.3208 10.05 20 12 20C13.95 20 15.6042 19.3208 16.9625 17.9625C18.3208 16.6042 19 14.95 19 13C19 11.05 18.3208 9.39582 16.9625 8.03749C15.6042 6.67916 13.95 5.99999 12 5.99999H11.7345L13.323 7.58849L12.2692 8.67299L8.84625 5.24049L12.2885 1.80774L13.3422 2.89224L11.7345 4.49999H12C13.1795 4.49999 14.2846 4.72307 15.3152 5.16924C16.3461 5.61541 17.2448 6.22182 18.0115 6.98849C18.7782 7.75516 19.3846 8.65391 19.8307 9.68474C20.2769 10.7154 20.5 11.8205 20.5 13C20.5 14.1795 20.2769 15.2846 19.8307 16.3152C19.3846 17.3461 18.7782 18.2448 18.0115 19.0115C17.2448 19.7782 16.3461 20.3846 15.3152 20.8307C14.2846 21.2769 13.1795 21.5 12 21.5Z"/>
        </g>
    </symbol>

    <symbol width="24" height="24" viewBox="0 0 24 24" id="verified-icon">
        <mask id="mask0_40002133_656" style="mask-type:alpha" maskUnits="userSpaceOnUse" x="0" y="0" width="24" height="24">
        <rect width="24" height="24"/>
        </mask>
        <g mask="url(#mask0_40002133_656)">
        <path d="M8.81147 21.8653L7.02697 18.8578L3.63847 18.1153L3.96922 14.627L1.67322 12L3.96922 9.37301L3.63847 5.88477L7.02697 5.14227L8.81147 2.13477L12 3.48851L15.1885 2.13477L16.973 5.14227L20.3615 5.88477L20.0307 9.37301L22.3267 12L20.0307 14.627L20.3615 18.1153L16.973 18.8578L15.1885 21.8653L12 20.5115L8.81147 21.8653ZM9.44997 19.95L12 18.8693L14.5807 19.95L16 17.55L18.75 16.9193L18.5 14.1L20.35 12L18.5 9.86927L18.75 7.05002L16 6.45002L14.55 4.05002L12 5.13076L9.41922 4.05002L7.99997 6.45002L5.24997 7.05002L5.49997 9.86927L3.64997 12L5.49997 14.1L5.24997 16.95L7.99997 17.55L9.44997 19.95ZM10.95 15.2038L16.2537 9.90002L15.2 8.81552L10.95 13.0655L8.79997 10.9463L7.74622 12L10.95 15.2038Z"/>
        </g>
    </symbol>

    <symbol width="24" height="24" viewBox="0 0 24 24" id="time-icon">
        <mask id="mask0_40002449_17328" style="mask-type:alpha" maskUnits="userSpaceOnUse" x="0" y="0" width="24" height="24">
        <rect width="24" height="24"/>
        </mask>
        <g mask="url(#mask0_40002449_17328)">
        <path d="M15.473 16.527L16.527 15.473L12.75 11.696V7H11.25V12.3038L15.473 16.527ZM12.0017 21.5C10.6877 21.5 9.45267 21.2507 8.2965 20.752C7.14033 20.2533 6.13467 19.5766 5.2795 18.7218C4.42433 17.8669 3.74725 16.8617 3.24825 15.706C2.74942 14.5503 2.5 13.3156 2.5 12.0017C2.5 10.6877 2.74933 9.45267 3.248 8.2965C3.74667 7.14033 4.42342 6.13467 5.27825 5.2795C6.13308 4.42433 7.13833 3.74725 8.294 3.24825C9.44967 2.74942 10.6844 2.5 11.9983 2.5C13.3123 2.5 14.5473 2.74933 15.7035 3.248C16.8597 3.74667 17.8653 4.42342 18.7205 5.27825C19.5757 6.13308 20.2528 7.13833 20.7518 8.294C21.2506 9.44967 21.5 10.6844 21.5 11.9983C21.5 13.3123 21.2507 14.5473 20.752 15.7035C20.2533 16.8597 19.5766 17.8653 18.7218 18.7205C17.8669 19.5757 16.8617 20.2528 15.706 20.7518C14.5503 21.2506 13.3156 21.5 12.0017 21.5ZM12 20C14.2167 20 16.1042 19.2208 17.6625 17.6625C19.2208 16.1042 20 14.2167 20 12C20 9.78333 19.2208 7.89583 17.6625 6.3375C16.1042 4.77917 14.2167 4 12 4C9.78333 4 7.89583 4.77917 6.3375 6.3375C4.77917 7.89583 4 9.78333 4 12C4 14.2167 4.77917 16.1042 6.3375 17.6625C7.89583 19.2208 9.78333 20 12 20Z"/>
        </g>
    </symbol>

    <symbol width="24" height="24" viewBox="0 0 24 24" id="arrow-left-icon">
        <mask id="mask0_40002108_565" style="mask-type:alpha" maskUnits="userSpaceOnUse" x="0" y="0" width="24" height="24">
        <rect width="24" height="24"/>
        </mask>
        <g mask="url(#mask0_40002108_565)">
        <path d="M7.373 12.75L13.0693 18.4462L12 19.5L4.5 12L12 4.5L13.0693 5.55375L7.373 11.25H19.5V12.75H7.373Z"/>
        </g>
    </symbol>

    <symbol width="24" height="24" viewBox="0 0 24 24" id="arrow-right-icon">
        <mask id="mask0_40002108_566" style="mask-type:alpha" maskUnits="userSpaceOnUse" x="0" y="0" width="24" height="24">
        <rect width="24" height="24"/>
        </mask>
        <g mask="url(#mask0_40002108_566)">
        <path d="M16.627 12.75H4.5V11.25H16.627L10.9308 5.55375L12 4.5L19.5 12L12 19.5L10.9308 18.4462L16.627 12.75Z"/>
        </g>
    </symbol>

    <symbol width="24" height="24" viewBox="0 0 24 24" id="add-icon">
        <mask id="mask0_40002147_12083" style="mask-type:alpha" maskUnits="userSpaceOnUse" x="0" y="0" width="24" height="24">
        <rect width="24" height="24"/>
        </mask>
        <g mask="url(#mask0_40002147_12083)">
        <path d="M11.25 12.75H5.5V11.25H11.25V5.5H12.75V11.25H18.5V12.75H12.75V18.5H11.25V12.75Z"/>
        </g>
    </symbol>

    <symbol width="24" height="24" viewBox="0 0 24 24" id="remove-icon">
        <mask id="mask0_40002147_12084" style="mask-type:alpha" maskUnits="userSpaceOnUse" x="0" y="0" width="24" height="24">
        <rect width="24" height="24" fill="#D9D9D9"/>
        </mask>
        <g mask="url(#mask0_40002147_12084)">
        <path d="M5.5 12.75V11.25H18.5V12.75H5.5Z" fill="black"/>
        </g>
    </symbol>

    <symbol width="24" height="24" viewBox="0 0 24 24" id="instagram-icon">
        <path d="M17.3395 5.46C17.1022 5.46 16.8702 5.53038 16.6728 5.66224C16.4755 5.79409 16.3217 5.98151 16.2309 6.20078C16.14 6.42005 16.1163 6.66133 16.1626 6.89411C16.2089 7.12689 16.3232 7.34071 16.491 7.50853C16.6588 7.67635 16.8726 7.79064 17.1054 7.83694C17.3382 7.88324 17.5795 7.85948 17.7987 7.76866C18.018 7.67783 18.2054 7.52402 18.3373 7.32668C18.4691 7.12935 18.5395 6.89734 18.5395 6.66C18.5395 6.34174 18.4131 6.03652 18.188 5.81147C17.963 5.58643 17.6578 5.46 17.3395 5.46ZM21.9395 7.88C21.9201 7.0503 21.7647 6.2294 21.4795 5.45C21.2252 4.78313 20.8295 4.17928 20.3195 3.68C19.8243 3.16743 19.2191 2.77418 18.5495 2.53C17.7722 2.23616 16.9504 2.07721 16.1195 2.06C15.0595 2 14.7195 2 11.9995 2C9.27951 2 8.93951 2 7.87951 2.06C7.04866 2.07721 6.22685 2.23616 5.44951 2.53C4.78119 2.77665 4.17645 3.16956 3.67951 3.68C3.16694 4.17518 2.77369 4.78044 2.52951 5.45C2.23567 6.22734 2.07672 7.04915 2.05951 7.88C1.99951 8.94 1.99951 9.28 1.99951 12C1.99951 14.72 1.99951 15.06 2.05951 16.12C2.07672 16.9508 2.23567 17.7727 2.52951 18.55C2.77369 19.2196 3.16694 19.8248 3.67951 20.32C4.17645 20.8304 4.78119 21.2234 5.44951 21.47C6.22685 21.7638 7.04866 21.9228 7.87951 21.94C8.93951 22 9.27951 22 11.9995 22C14.7195 22 15.0595 22 16.1195 21.94C16.9504 21.9228 17.7722 21.7638 18.5495 21.47C19.2191 21.2258 19.8243 20.8326 20.3195 20.32C20.8318 19.8226 21.2278 19.2182 21.4795 18.55C21.7647 17.7706 21.9201 16.9497 21.9395 16.12C21.9395 15.06 21.9995 14.72 21.9995 12C21.9995 9.28 21.9995 8.94 21.9395 7.88ZM20.1395 16C20.1322 16.6348 20.0173 17.2637 19.7995 17.86C19.6398 18.2952 19.3834 18.6884 19.0495 19.01C18.7252 19.3405 18.3327 19.5964 17.8995 19.76C17.3032 19.9778 16.6743 20.0927 16.0395 20.1C15.0395 20.15 14.6695 20.16 12.0395 20.16C9.40951 20.16 9.03951 20.16 8.03951 20.1C7.3804 20.1123 6.72411 20.0109 6.09951 19.8C5.68529 19.6281 5.31087 19.3728 4.99951 19.05C4.6676 18.7287 4.41436 18.3352 4.25951 17.9C4.01537 17.2952 3.87996 16.6519 3.85951 16C3.85951 15 3.79951 14.63 3.79951 12C3.79951 9.37 3.79951 9 3.85951 8C3.86399 7.35106 3.98246 6.70795 4.20951 6.1C4.38556 5.67791 4.65578 5.30166 4.99951 5C5.30333 4.65617 5.6788 4.3831 6.09951 4.2C6.70906 3.98004 7.35151 3.86508 7.99951 3.86C8.99951 3.86 9.36951 3.8 11.9995 3.8C14.6295 3.8 14.9995 3.8 15.9995 3.86C16.6343 3.86728 17.2632 3.98225 17.8595 4.2C18.3139 4.36865 18.7218 4.64285 19.0495 5C19.3772 5.30718 19.6333 5.68273 19.7995 6.1C20.0218 6.70893 20.1368 7.35178 20.1395 8C20.1895 9 20.1995 9.37 20.1995 12C20.1995 14.63 20.1895 15 20.1395 16ZM11.9995 6.87C10.9853 6.87198 9.99447 7.17453 9.15217 7.73942C8.30986 8.30431 7.65389 9.1062 7.26715 10.0438C6.8804 10.9813 6.78024 12.0125 6.97931 13.0069C7.17838 14.0014 7.66775 14.9145 8.38559 15.631C9.10343 16.3474 10.0175 16.835 11.0124 17.0321C12.0072 17.2293 13.0382 17.1271 13.975 16.7385C14.9118 16.35 15.7124 15.6924 16.2756 14.849C16.8389 14.0056 17.1395 13.0142 17.1395 12C17.1408 11.3251 17.0087 10.6566 16.7508 10.033C16.4928 9.40931 16.1141 8.84281 15.6364 8.36605C15.1587 7.88929 14.5915 7.51168 13.9673 7.25493C13.3432 6.99818 12.6744 6.86736 11.9995 6.87ZM11.9995 15.33C11.3409 15.33 10.6971 15.1347 10.1495 14.7688C9.60185 14.4029 9.17503 13.8828 8.92299 13.2743C8.67095 12.6659 8.60501 11.9963 8.7335 11.3503C8.86199 10.7044 9.17914 10.111 9.64485 9.64533C10.1106 9.17963 10.7039 8.86247 11.3499 8.73398C11.9958 8.6055 12.6654 8.67144 13.2738 8.92348C13.8823 9.17552 14.4024 9.60234 14.7683 10.15C15.1342 10.6976 15.3295 11.3414 15.3295 12C15.3295 12.4373 15.2434 12.8703 15.076 13.2743C14.9087 13.6784 14.6634 14.0454 14.3542 14.3547C14.045 14.6639 13.6779 14.9092 13.2738 15.0765C12.8698 15.2439 12.4368 15.33 11.9995 15.33Z"/>
    </symbol>

    <symbol width="24" height="24" viewBox="0 0 24 24" id="facebook-icon">
        <path d="M14.0312 13.79V23H9.64438V13.79H6V10.0555H9.64438V8.69673C9.64438 3.65237 11.8293 1 16.4523 1C17.8696 1 18.2239 1.21967 19 1.39867V5.09247C18.1311 4.94601 17.8865 4.86465 16.9838 4.86465C15.9124 4.86465 15.3387 5.15756 14.8157 5.73522C14.2927 6.31287 14.0312 7.31362 14.0312 8.74557V10.0636H19L17.6671 13.7981H14.0312V13.79Z"/>
    </symbol>

    <symbol width="24" height="24" viewBox="0 0 24 24" id="youtube-icon">
        <path d="M23.0005 9.70998C23.05 8.27864 22.7369 6.858 22.0905 5.57998C21.6519 5.05558 21.0432 4.70169 20.3705 4.57998C17.588 4.32751 14.794 4.22403 12.0005 4.26998C9.21716 4.22194 6.43322 4.32208 3.66052 4.56998C3.11234 4.6697 2.60503 4.92683 2.20052 5.30998C1.30052 6.13998 1.20052 7.55998 1.10052 8.75998C0.955427 10.9175 0.955427 13.0824 1.10052 15.24C1.12945 15.9154 1.23001 16.5858 1.40052 17.24C1.52109 17.745 1.76504 18.2123 2.11051 18.6C2.51778 19.0034 3.0369 19.2752 3.60052 19.38C5.75643 19.6461 7.92873 19.7564 10.1005 19.71C13.6005 19.76 16.6705 19.71 20.3005 19.43C20.878 19.3316 21.4117 19.0595 21.8305 18.65C22.1105 18.3699 22.3196 18.0271 22.4405 17.65C22.7981 16.5526 22.9738 15.4041 22.9605 14.25C23.0005 13.69 23.0005 10.31 23.0005 9.70998ZM9.74051 14.85V8.65998L15.6605 11.77C14.0005 12.69 11.8105 13.73 9.74051 14.85Z"/>
    </symbol>
</svg>