<svg xmlns="http://www.w3.org/2000/svg">
    <symbol width="133" height="24" viewBox="0 0 133 24" id="logo-icon">
        <g clip-path="url(#clip0_108_885)">
        <path d="M3.40515 23.7116C3.08462 23.7116 2.92436 23.5941 2.92436 23.3591C2.92436 23.1242 3.06325 22.996 3.34105 22.9746L4.78344 22.7503C5.21082 22.6862 5.49929 22.5794 5.64887 22.4299C5.79845 22.259 5.87324 21.9493 5.87324 21.5007V2.27504C5.87324 1.97597 5.80914 1.76235 5.68093 1.63418C5.55271 1.50601 5.28561 1.44192 4.8796 1.44192C4.08895 1.44192 3.30899 1.78371 2.53972 2.46729C1.77045 3.15087 1.26829 4.251 1.03323 5.76768L0.87297 6.82509C0.830233 7.10279 0.680652 7.24165 0.424229 7.24165C0.103701 7.24165 -0.0351952 7.06007 0.00754181 6.69692L0.296019 0.897197C0.338756 0.405874 0.531072 0.160213 0.87297 0.160213C1.02255 0.160213 1.16145 0.202937 1.28966 0.288385C1.41787 0.352469 1.63156 0.427235 1.93072 0.512684C2.25125 0.598132 2.75341 0.640855 3.43721 0.640855H10.585C11.2688 0.640855 11.7603 0.598132 12.0595 0.512684C12.38 0.427235 12.6044 0.352469 12.7326 0.288385C12.8822 0.202937 13.0211 0.160213 13.1493 0.160213C13.4912 0.160213 13.6835 0.405874 13.7262 0.897197L14.0147 6.69692C14.0574 7.06007 13.9185 7.24165 13.598 7.24165C13.3416 7.24165 13.192 7.10279 13.1493 6.82509L12.989 5.76768C12.7753 4.251 12.2838 3.15087 11.5146 2.46729C10.7453 1.78371 9.95465 1.44192 9.14264 1.44192C8.73664 1.44192 8.46953 1.50601 8.34132 1.63418C8.21311 1.76235 8.149 1.97597 8.149 2.27504V21.5007C8.149 21.9493 8.22379 22.259 8.37337 22.4299C8.54432 22.5794 8.8328 22.6862 9.2388 22.7503L10.6812 22.9746C10.959 22.996 11.0979 23.1242 11.0979 23.3591C11.0979 23.5941 10.9376 23.7116 10.6171 23.7116H3.40515ZM18.4855 24C17.4599 24 16.541 23.6582 15.729 22.9746C14.917 22.2911 14.2652 21.3298 13.7738 20.0908C13.3037 18.8304 13.0686 17.3778 13.0686 15.733C13.0686 14.0454 13.3143 12.5607 13.8058 11.279C14.2973 9.99732 14.9704 8.99332 15.8251 8.26701C16.6799 7.54071 17.6308 7.17756 18.6779 7.17756C19.9386 7.17756 20.9536 7.70093 21.7229 8.74765C22.5135 9.77302 22.9089 11.4499 22.9089 13.7784C22.9089 14.4833 22.6417 14.8358 22.1075 14.8358H16.0175C15.5901 14.8358 15.3764 15.0814 15.3764 15.5728C15.3764 17.8371 15.7076 19.5354 16.3701 20.6676C17.0325 21.7997 17.8765 22.3658 18.9022 22.3658C19.7142 22.3658 20.3767 22.0774 20.8895 21.5007C21.4024 20.9239 21.819 19.9519 22.1396 18.5848C22.2037 18.3498 22.3426 18.2323 22.5563 18.2323C22.8127 18.2323 22.9089 18.4459 22.8447 18.8732C22.5028 20.7744 21.9579 22.1095 21.21 22.8785C20.4621 23.6262 19.554 24 18.4855 24ZM15.9213 14.0347H19.1587C20.1844 14.0347 20.6972 13.5007 20.6972 12.4326C20.6972 11.0441 20.5262 9.9546 20.1843 9.16421C19.8425 8.37382 19.3296 7.97863 18.6458 7.97863C17.8124 7.97863 17.1073 8.45927 16.5303 9.42055C15.9747 10.3818 15.6115 11.749 15.4405 13.522C15.3978 13.8638 15.558 14.0347 15.9213 14.0347ZM28.6614 9.42055C29.5375 7.92522 30.5952 7.17756 31.8346 7.17756C32.5398 7.17756 33.0633 7.39118 33.4052 7.81842C33.7471 8.22429 33.9181 8.68357 33.9181 9.19625C33.9181 9.60213 33.8112 9.93324 33.5975 10.1896C33.4052 10.4459 33.0954 10.5741 32.668 10.5741C32.3261 10.5741 32.0697 10.4993 31.8987 10.3498C31.7491 10.1789 31.6209 9.98664 31.5141 9.77302C31.4286 9.5594 31.3218 9.37783 31.1936 9.2283C31.0653 9.0574 30.8517 8.97195 30.5525 8.97195C30.1679 8.97195 29.8046 9.20693 29.4627 9.67689C29.1208 10.1255 28.8323 10.7343 28.5973 11.5033C28.3836 12.2724 28.2767 13.1482 28.2767 14.1308V21.5648C28.2767 22.0134 28.3408 22.3338 28.4691 22.526C28.6186 22.7183 28.9178 22.8358 29.3665 22.8785L30.232 22.9746C30.467 23.0174 30.5846 23.1348 30.5846 23.3271C30.5846 23.5834 30.4243 23.7116 30.1038 23.7116H24.6868C24.3663 23.7116 24.206 23.5941 24.206 23.3591C24.206 23.1669 24.3449 23.0387 24.6227 22.9746L25.0073 22.9105C25.4561 22.8251 25.7446 22.6969 25.8728 22.526C26.0223 22.3338 26.0971 22.0134 26.0971 21.5648V10.7984C26.0971 10.4139 26.033 10.1575 25.9048 10.0294C25.798 9.87983 25.595 9.7837 25.2958 9.74098L24.6227 9.64485C24.3449 9.62349 24.206 9.506 24.206 9.29238C24.206 9.12149 24.377 9.004 24.7189 8.93991C25.3813 8.8331 25.8835 8.66221 26.2254 8.42723C26.5886 8.19225 26.9626 7.90386 27.3472 7.56207C27.5395 7.36982 27.6998 7.27369 27.828 7.27369C28.0203 7.27369 28.1165 7.40186 28.1165 7.6582V9.38851C28.1165 9.53804 28.1806 9.63417 28.3088 9.67689C28.437 9.69826 28.5545 9.61281 28.6614 9.42055ZM38.8657 9.42055C39.7419 7.92522 40.7996 7.17756 42.039 7.17756C42.7441 7.17756 43.2677 7.39118 43.6096 7.81842C43.9515 8.22429 44.1224 8.68357 44.1224 9.19625C44.1224 9.60213 44.0156 9.93324 43.8019 10.1896C43.6096 10.4459 43.2997 10.5741 42.8724 10.5741C42.5305 10.5741 42.274 10.4993 42.1031 10.3498C41.9535 10.1789 41.8253 9.98664 41.7185 9.77302C41.633 9.5594 41.5261 9.37783 41.3979 9.2283C41.2697 9.0574 41.056 8.97195 40.7569 8.97195C40.3722 8.97195 40.009 9.20693 39.6671 9.67689C39.3252 10.1255 39.0367 10.7343 38.8016 11.5033C38.5879 12.2724 38.4811 13.1482 38.4811 14.1308V21.5648C38.4811 22.0134 38.5452 22.3338 38.6734 22.526C38.823 22.7183 39.1222 22.8358 39.5709 22.8785L40.4363 22.9746C40.6714 23.0174 40.7889 23.1348 40.7889 23.3271C40.7889 23.5834 40.6287 23.7116 40.3081 23.7116H34.8912C34.5706 23.7116 34.4104 23.5941 34.4104 23.3591C34.4104 23.1669 34.5493 23.0387 34.8271 22.9746L35.2117 22.9105C35.6604 22.8251 35.9489 22.6969 36.0771 22.526C36.2267 22.3338 36.3015 22.0134 36.3015 21.5648V10.7984C36.3015 10.4139 36.2374 10.1575 36.1092 10.0294C36.0023 9.87983 35.7993 9.7837 35.5002 9.74098L34.8271 9.64485C34.5493 9.62349 34.4104 9.506 34.4104 9.29238C34.4104 9.12149 34.5813 9.004 34.9232 8.93991C35.5857 8.8331 36.0878 8.66221 36.4297 8.42723C36.793 8.19225 37.1669 7.90386 37.5516 7.56207C37.7439 7.36982 37.9042 7.27369 38.0324 7.27369C38.2247 7.27369 38.3208 7.40186 38.3208 7.6582V9.38851C38.3208 9.53804 38.3849 9.63417 38.5132 9.67689C38.6414 9.69826 38.7589 9.61281 38.8657 9.42055ZM47.4168 24C46.5194 24 45.7821 23.7223 45.2052 23.1669C44.6282 22.5901 44.3398 21.8318 44.3398 20.8919C44.3398 19.9733 44.6282 19.1081 45.2052 18.2964C45.7821 17.4633 46.5728 16.7156 47.5771 16.0534C48.5814 15.3912 49.7247 14.8571 51.0068 14.4513C51.2846 14.3658 51.4235 14.1842 51.4235 13.9065V10.9906C51.4235 9.96528 51.2632 9.23898 50.9427 8.81174C50.6221 8.36314 50.1841 8.13884 49.6285 8.13884C49.0943 8.13884 48.6028 8.3845 48.1541 8.87583C47.7267 9.34579 47.4168 10.1469 47.2245 11.279C47.1177 11.9626 46.8826 12.4646 46.5194 12.785C46.1775 13.0841 45.8249 13.2336 45.4616 13.2336C44.8633 13.2336 44.5641 12.9346 44.5641 12.3364C44.5641 11.7169 44.7351 11.1081 45.077 10.51C45.4402 9.89051 45.9104 9.3351 46.4873 8.84378C47.0643 8.3311 47.6946 7.92522 48.3784 7.62616C49.0622 7.32709 49.746 7.17756 50.4298 7.17756C52.5453 7.17756 53.6031 8.40587 53.6031 10.8625V20.6676C53.6031 21.5648 53.8274 22.0134 54.2762 22.0134C54.554 22.0134 54.8104 21.8318 55.0454 21.4686C55.2805 21.0841 55.398 20.4433 55.398 19.5461C55.398 19.2043 55.5369 19.0334 55.8147 19.0334C56.0711 19.0334 56.1993 19.215 56.1993 19.5781C56.1993 21.1375 55.9216 22.2697 55.366 22.9746C54.8318 23.6582 54.2228 24 53.539 24C53.0261 24 52.6201 23.7971 52.3209 23.3912C52.0218 22.964 51.8188 22.4619 51.7119 21.8852C51.6906 21.6716 51.5944 21.5648 51.4235 21.5648C51.2739 21.5434 51.1243 21.6395 50.9747 21.8531C50.4619 22.5581 49.9383 23.0921 49.4041 23.4553C48.8699 23.8184 48.2075 24 47.4168 24ZM48.2823 22.526C48.8379 22.526 49.3507 22.3338 49.8208 21.9493C50.2909 21.5434 50.6756 21.0093 50.9747 20.3471C51.2739 19.6849 51.4235 18.9372 51.4235 18.1041V15.765C51.4235 15.3591 51.1991 15.2417 50.7504 15.4125C49.4469 15.8825 48.4319 16.534 47.7053 17.3672C47.0002 18.1789 46.6476 19.1615 46.6476 20.3151C46.6476 21.7891 47.1925 22.526 48.2823 22.526ZM62.9091 23.7116C62.5886 23.7116 62.4283 23.5941 62.4283 23.3591C62.4283 23.1669 62.5672 23.0387 62.845 22.9746L63.5822 22.8465C64.031 22.761 64.3194 22.6435 64.4476 22.494C64.5972 22.3445 64.672 22.0454 64.672 21.5968V2.75568C64.672 2.30708 64.5972 2.00801 64.4476 1.85848C64.3194 1.70895 64.031 1.59146 63.5822 1.50601L62.845 1.37784C62.5672 1.31375 62.4283 1.18558 62.4283 0.993326C62.4283 0.758345 62.5886 0.640855 62.9091 0.640855H68.7748C69.0953 0.640855 69.2556 0.769026 69.2556 1.02537C69.2556 1.21762 69.1381 1.33511 68.903 1.37784L68.0376 1.50601C67.5888 1.57009 67.2897 1.68758 67.1401 1.85848C67.0119 2.02937 66.9478 2.33912 66.9478 2.78772V10.8304C66.9478 11.1295 67.0974 11.279 67.3965 11.279H73.743C74.0422 11.279 74.1917 11.1295 74.1917 10.8304V2.78772C74.1917 2.33912 74.117 2.02937 73.9674 1.85848C73.8392 1.68758 73.5507 1.57009 73.1019 1.50601L72.2365 1.37784C72.0015 1.33511 71.8839 1.21762 71.8839 1.02537C71.8839 0.769026 72.0442 0.640855 72.3647 0.640855H78.2304C78.5509 0.640855 78.7112 0.758345 78.7112 0.993326C78.7112 1.18558 78.5723 1.31375 78.2945 1.37784L77.5573 1.50601C77.1086 1.59146 76.8094 1.70895 76.6598 1.85848C76.5316 2.00801 76.4675 2.30708 76.4675 2.75568V21.5968C76.4675 22.0454 76.5316 22.3445 76.6598 22.494C76.8094 22.6435 77.1086 22.761 77.5573 22.8465L78.2945 22.9746C78.5723 23.0387 78.7112 23.1669 78.7112 23.3591C78.7112 23.5941 78.5509 23.7116 78.2304 23.7116H72.3647C72.0442 23.7116 71.8839 23.5834 71.8839 23.3271C71.8839 23.1348 72.0015 23.0174 72.2365 22.9746L73.1019 22.8465C73.5507 22.7824 73.8392 22.6649 73.9674 22.494C74.117 22.3231 74.1917 22.0134 74.1917 21.5648V12.6889C74.1917 12.3898 74.0422 12.2403 73.743 12.2403H67.3965C67.0974 12.2403 66.9478 12.3898 66.9478 12.6889V21.5648C66.9478 22.0134 67.0119 22.3231 67.1401 22.494C67.2897 22.6649 67.5888 22.7824 68.0376 22.8465L68.903 22.9746C69.1381 23.0174 69.2556 23.1348 69.2556 23.3271C69.2556 23.5834 69.0953 23.7116 68.7748 23.7116H62.9091ZM84.9077 24C83.882 24 82.9631 23.6582 82.1511 22.9746C81.3391 22.2911 80.6874 21.3298 80.1959 20.0908C79.7258 18.8304 79.4907 17.3778 79.4907 15.733C79.4907 14.0454 79.7365 12.5607 80.2279 11.279C80.7194 9.99732 81.3925 8.99332 82.2473 8.26701C83.102 7.54071 84.0529 7.17756 85.1 7.17756C86.3607 7.17756 87.3757 7.70093 88.145 8.74765C88.9357 9.77302 89.331 11.4499 89.331 13.7784C89.331 14.4833 89.0639 14.8358 88.5296 14.8358H82.4396C82.0122 14.8358 81.7985 15.0814 81.7985 15.5728C81.7985 17.8371 82.1297 19.5354 82.7922 20.6676C83.4546 21.7997 84.2987 22.3658 85.3243 22.3658C86.1364 22.3658 86.7988 22.0774 87.3116 21.5007C87.8245 20.9239 88.2412 19.9519 88.5617 18.5848C88.6258 18.3498 88.7647 18.2323 88.9784 18.2323C89.2348 18.2323 89.331 18.4459 89.2669 18.8732C88.925 20.7744 88.3801 22.1095 87.6322 22.8785C86.8843 23.6262 85.9761 24 84.9077 24ZM82.3434 14.0347H85.5808C86.6065 14.0347 87.1193 13.5007 87.1193 12.4326C87.1193 11.0441 86.9484 9.9546 86.6065 9.16421C86.2646 8.37382 85.7517 7.97863 85.0679 7.97863C84.2346 7.97863 83.5294 8.45927 82.9524 9.42055C82.3969 10.3818 82.0336 11.749 81.8626 13.522C81.8199 13.8638 81.9802 14.0347 82.3434 14.0347ZM93.9938 24C93.0963 24 92.3591 23.7223 91.7821 23.1669C91.2052 22.5901 90.9167 21.8318 90.9167 20.8919C90.9167 19.9733 91.2052 19.1081 91.7821 18.2964C92.3591 17.4633 93.1497 16.7156 94.154 16.0534C95.1584 15.3912 96.3016 14.8571 97.5837 14.4513C97.8615 14.3658 98.0004 14.1842 98.0004 13.9065V10.9906C98.0004 9.96528 97.8401 9.23898 97.5196 8.81174C97.1991 8.36314 96.761 8.13884 96.2054 8.13884C95.6712 8.13884 95.1797 8.3845 94.731 8.87583C94.3036 9.34579 93.9938 10.1469 93.8015 11.279C93.6946 11.9626 93.4596 12.4646 93.0963 12.785C92.7544 13.0841 92.4018 13.2336 92.0386 13.2336C91.4402 13.2336 91.1411 12.9346 91.1411 12.3364C91.1411 11.7169 91.312 11.1081 91.6539 10.51C92.0172 9.89051 92.4873 9.3351 93.0642 8.84378C93.6412 8.3311 94.2716 7.92522 94.9554 7.62616C95.6392 7.32709 96.323 7.17756 97.0068 7.17756C99.1223 7.17756 100.18 8.40587 100.18 10.8625V20.6676C100.18 21.5648 100.404 22.0134 100.853 22.0134C101.131 22.0134 101.387 21.8318 101.622 21.4686C101.857 21.0841 101.975 20.4433 101.975 19.5461C101.975 19.2043 102.114 19.0334 102.392 19.0334C102.648 19.0334 102.776 19.215 102.776 19.5781C102.776 21.1375 102.498 22.2697 101.943 22.9746C101.409 23.6582 100.8 24 100.116 24C99.6031 24 99.197 23.7971 98.8979 23.3912C98.5987 22.964 98.3957 22.4619 98.2889 21.8852C98.2675 21.6716 98.1714 21.5648 98.0004 21.5648C97.8508 21.5434 97.7012 21.6395 97.5517 21.8531C97.0388 22.5581 96.5153 23.0921 95.9811 23.4553C95.4468 23.8184 94.7844 24 93.9938 24ZM94.8592 22.526C95.4148 22.526 95.9276 22.3338 96.3978 21.9493C96.8679 21.5434 97.2525 21.0093 97.5517 20.3471C97.8508 19.6849 98.0004 18.9372 98.0004 18.1041V15.765C98.0004 15.3591 97.776 15.2417 97.3273 15.4125C96.0238 15.8825 95.0088 16.534 94.2823 17.3672C93.5771 18.1789 93.2245 19.1615 93.2245 20.3151C93.2245 21.7891 93.7694 22.526 94.8592 22.526ZM103.591 23.7116C103.335 23.7116 103.206 23.5941 103.206 23.3591C103.206 23.1455 103.324 23.0174 103.559 22.9746L104.008 22.9105C104.456 22.8465 104.788 22.7183 105.001 22.526C105.215 22.3338 105.322 22.0134 105.322 21.5648V3.20427C105.322 2.81976 105.258 2.55274 105.13 2.40321C105.023 2.25367 104.82 2.16823 104.521 2.14686L103.783 2.05074C103.548 2.00801 103.431 1.87984 103.431 1.66622C103.431 1.4526 103.548 1.32443 103.783 1.28171C104.382 1.15354 104.894 1.00401 105.322 0.833112C105.749 0.662217 106.102 0.491323 106.38 0.320427C106.721 0.106809 106.978 0 107.149 0C107.384 0 107.501 0.170894 107.501 0.512684V21.5648C107.501 22.0134 107.566 22.3338 107.694 22.526C107.843 22.6969 108.142 22.8144 108.591 22.8785L109.328 22.9746C109.564 23.0174 109.681 23.1455 109.681 23.3591C109.681 23.5941 109.553 23.7116 109.296 23.7116H103.591ZM114.704 24C113.957 24 113.337 23.7437 112.845 23.231C112.375 22.6969 112.14 21.8318 112.14 20.6355V8.65153C112.14 8.39519 112.012 8.26701 111.756 8.26701H110.826C110.484 8.26701 110.313 8.13884 110.313 7.8825C110.313 7.71161 110.409 7.56207 110.602 7.4339C111.307 6.94258 111.873 6.41922 112.3 5.86381C112.728 5.28704 113.102 4.50733 113.422 3.5247C113.572 3.0761 113.754 2.8518 113.967 2.8518C114.202 2.8518 114.32 3.0227 114.32 3.36449V6.92122C114.32 7.22028 114.469 7.36982 114.769 7.36982H116.852C117.194 7.36982 117.365 7.51935 117.365 7.81842C117.365 8.11748 117.194 8.26701 116.852 8.26701H114.769C114.469 8.26701 114.32 8.41655 114.32 8.71561V20.6676C114.32 21.1375 114.395 21.5113 114.544 21.7891C114.694 22.0454 114.972 22.1736 115.378 22.1736C115.826 22.1736 116.19 21.9493 116.467 21.5007C116.767 21.0521 116.959 20.3258 117.044 19.3218C117.087 19.0227 117.226 18.8732 117.461 18.8732C117.717 18.8732 117.846 19.0334 117.846 19.3538C117.782 20.9987 117.44 22.1842 116.82 22.9105C116.222 23.6368 115.516 24 114.704 24ZM119.153 23.7116C118.897 23.7116 118.768 23.5941 118.768 23.3591C118.768 23.1455 118.886 23.0174 119.121 22.9746L119.57 22.9105C120.019 22.8465 120.307 22.7183 120.435 22.526C120.585 22.3338 120.66 22.0134 120.66 21.5648V3.20427C120.66 2.81976 120.596 2.56342 120.467 2.43525C120.36 2.28572 120.157 2.18959 119.858 2.14686L119.185 2.05074C118.95 2.00801 118.833 1.87984 118.833 1.66622C118.833 1.4526 118.95 1.32443 119.185 1.28171C119.784 1.15354 120.286 1.00401 120.692 0.833112C121.098 0.662217 121.44 0.491323 121.717 0.320427C122.059 0.106809 122.316 0 122.487 0C122.722 0 122.839 0.170894 122.839 0.512684V9.004C122.839 9.19625 122.903 9.31374 123.032 9.35647C123.16 9.37783 123.32 9.30306 123.512 9.13217C124.324 8.3845 125.04 7.87182 125.66 7.59412C126.28 7.31641 126.931 7.17756 127.615 7.17756C128.619 7.17756 129.41 7.51935 129.987 8.20293C130.564 8.86514 130.852 9.84779 130.852 11.1509V21.5648C130.852 22.0134 130.917 22.3338 131.045 22.526C131.194 22.6969 131.493 22.8144 131.942 22.8785L132.647 22.9746C132.882 23.0174 133 23.1455 133 23.3591C133 23.5941 132.872 23.7116 132.615 23.7116H127.23C126.931 23.7116 126.782 23.5941 126.782 23.3591C126.782 23.1455 126.899 23.0174 127.134 22.9746L127.583 22.9105C128.032 22.8465 128.32 22.7183 128.448 22.526C128.598 22.3338 128.673 22.0134 128.673 21.5648V11.5033C128.673 10.4566 128.481 9.71962 128.096 9.29238C127.711 8.86514 127.166 8.65153 126.461 8.65153C125.777 8.65153 125.158 8.85446 124.602 9.26034C124.068 9.64485 123.641 10.1682 123.32 10.8304C122.999 11.4713 122.839 12.1869 122.839 12.9773V21.5648C122.839 22.0134 122.903 22.3338 123.032 22.526C123.181 22.7183 123.48 22.8358 123.929 22.8785L124.794 22.9746C125.029 23.0174 125.147 23.1455 125.147 23.3591C125.147 23.5941 125.019 23.7116 124.762 23.7116H119.153Z"/>
        </g>
        <defs>
        <clipPath id="clip0_108_885">
        <rect width="133" height="24"/>
        </clipPath>
</defs>
    </symbol>

    <symbol width="24" height="24" viewBox="0 0 24 24" id="star-icon">
        <mask id="mask0_17_2281" style="mask-type:alpha" maskUnits="userSpaceOnUse" x="0" y="0" width="24" height="24">
        <rect width="24" height="24"/>
        </mask>
        <g mask="url(#mask0_17_2281)">
        <path d="M6.575 19.9615L8.00775 13.7922L3.22125 9.64424L9.5365 9.09624L12 3.27899L14.4635 9.09624L20.7788 9.64424L15.9923 13.7922L17.425 19.9615L12 16.6885L6.575 19.9615Z"/>
        </g>
    </symbol>

    <symbol width="24" height="24" viewBox="0 0 24 24" id="check-icon">
        <mask id="mask0_40002147_9442" style="mask-type:alpha" maskUnits="userSpaceOnUse" x="0" y="0" width="24" height="24">
        <rect width="24" height="24"/>
        </mask>
        <g mask="url(#mask0_40002147_9442)">
        <path d="M9.54995 17.6537L4.21545 12.3192L5.28445 11.25L9.54995 15.5155L18.7155 6.34998L19.7845 7.41923L9.54995 17.6537Z"/>
        </g>
    </symbol>

    <symbol width="24" height="24" viewBox="0 0 24 24" id="speed-truck-icon">
        <mask id="mask0_40002133_653" style="mask-type:alpha" maskUnits="userSpaceOnUse" x="0" y="0" width="24" height="24">
        <rect width="24" height="24"/>
        </mask>
        <g mask="url(#mask0_40002133_653)">
        <path d="M7.25005 19.5C6.48722 19.5 5.83821 19.2323 5.30305 18.697C4.76771 18.1618 4.50005 17.5128 4.50005 16.75H2.1348L2.4693 15.25H5.01555C5.24755 14.8692 5.56005 14.5657 5.95305 14.3395C6.34588 14.1132 6.77821 14 7.25005 14C7.72188 14 8.1543 14.1132 8.5473 14.3395C8.94013 14.5657 9.25263 14.8692 9.4848 15.25H13.8808L16.029 6H5.07905L5.14055 5.7385C5.21488 5.37433 5.39271 5.07692 5.67405 4.84625C5.95555 4.61542 6.28663 4.5 6.6673 4.5H17.9038L17.0365 8.25H19.5385L22.3943 12.0578L21.4615 16.75H19.8845C19.8845 17.5128 19.617 18.1618 19.0818 18.697C18.5465 19.2323 17.8975 19.5 17.1348 19.5C16.372 19.5 15.7229 19.2323 15.1875 18.697C14.6524 18.1618 14.3848 17.5128 14.3848 16.75H10C10 17.5128 9.73238 18.1618 9.19705 18.697C8.66188 19.2323 8.01288 19.5 7.25005 19.5ZM15.9058 13.125H20.6443L20.7828 12.4173L18.7885 9.75H16.6923L15.9058 13.125ZM15.8828 6.5885L16.029 6L13.8808 15.25L14.027 14.6615L15.8828 6.5885ZM1.08655 13.1615L1.46155 11.6615H6.45205L6.07705 13.1615H1.08655ZM3.08655 9.5885L3.46155 8.0885H9.45205L9.07705 9.5885H3.08655ZM7.25005 18C7.59755 18 7.89272 17.8785 8.13555 17.6355C8.37855 17.3927 8.50005 17.0975 8.50005 16.75C8.50005 16.4025 8.37855 16.1073 8.13555 15.8645C7.89272 15.6215 7.59755 15.5 7.25005 15.5C6.90255 15.5 6.60738 15.6215 6.36455 15.8645C6.12155 16.1073 6.00005 16.4025 6.00005 16.75C6.00005 17.0975 6.12155 17.3927 6.36455 17.6355C6.60738 17.8785 6.90255 18 7.25005 18ZM17.1348 18C17.4821 18 17.7773 17.8785 18.0203 17.6355C18.2633 17.3927 18.3848 17.0975 18.3848 16.75C18.3848 16.4025 18.2633 16.1073 18.0203 15.8645C17.7773 15.6215 17.4821 15.5 17.1348 15.5C16.7873 15.5 16.492 15.6215 16.249 15.8645C16.006 16.1073 15.8845 16.4025 15.8845 16.75C15.8845 17.0975 16.006 17.3927 16.249 17.6355C16.492 17.8785 16.7873 18 17.1348 18Z"/>
        </g>
    </symbol>

    <symbol width="24" height="24" viewBox="0 0 24 24" id="replay-icon">
        <mask id="mask0_40002133_655" style="mask-type:alpha" maskUnits="userSpaceOnUse" x="0" y="0" width="24" height="24">
        <rect width="24" height="24"/>
        </mask>
        <g mask="url(#mask0_40002133_655)">
        <path d="M12 21.5C10.8205 21.5 9.71542 21.2769 8.68475 20.8307C7.65392 20.3846 6.75517 19.7782 5.9885 19.0115C5.22183 18.2448 4.61542 17.3461 4.16925 16.3152C3.72308 15.2846 3.5 14.1795 3.5 13H5C5 14.95 5.67917 16.6042 7.0375 17.9625C8.39583 19.3208 10.05 20 12 20C13.95 20 15.6042 19.3208 16.9625 17.9625C18.3208 16.6042 19 14.95 19 13C19 11.05 18.3208 9.39582 16.9625 8.03749C15.6042 6.67916 13.95 5.99999 12 5.99999H11.7345L13.323 7.58849L12.2692 8.67299L8.84625 5.24049L12.2885 1.80774L13.3422 2.89224L11.7345 4.49999H12C13.1795 4.49999 14.2846 4.72307 15.3152 5.16924C16.3461 5.61541 17.2448 6.22182 18.0115 6.98849C18.7782 7.75516 19.3846 8.65391 19.8307 9.68474C20.2769 10.7154 20.5 11.8205 20.5 13C20.5 14.1795 20.2769 15.2846 19.8307 16.3152C19.3846 17.3461 18.7782 18.2448 18.0115 19.0115C17.2448 19.7782 16.3461 20.3846 15.3152 20.8307C14.2846 21.2769 13.1795 21.5 12 21.5Z"/>
        </g>
    </symbol>

    <symbol width="24" height="24" viewBox="0 0 24 24" id="verified-icon">
        <mask id="mask0_40002133_656" style="mask-type:alpha" maskUnits="userSpaceOnUse" x="0" y="0" width="24" height="24">
        <rect width="24" height="24"/>
        </mask>
        <g mask="url(#mask0_40002133_656)">
        <path d="M8.81147 21.8653L7.02697 18.8578L3.63847 18.1153L3.96922 14.627L1.67322 12L3.96922 9.37301L3.63847 5.88477L7.02697 5.14227L8.81147 2.13477L12 3.48851L15.1885 2.13477L16.973 5.14227L20.3615 5.88477L20.0307 9.37301L22.3267 12L20.0307 14.627L20.3615 18.1153L16.973 18.8578L15.1885 21.8653L12 20.5115L8.81147 21.8653ZM9.44997 19.95L12 18.8693L14.5807 19.95L16 17.55L18.75 16.9193L18.5 14.1L20.35 12L18.5 9.86927L18.75 7.05002L16 6.45002L14.55 4.05002L12 5.13076L9.41922 4.05002L7.99997 6.45002L5.24997 7.05002L5.49997 9.86927L3.64997 12L5.49997 14.1L5.24997 16.95L7.99997 17.55L9.44997 19.95ZM10.95 15.2038L16.2537 9.90002L15.2 8.81552L10.95 13.0655L8.79997 10.9463L7.74622 12L10.95 15.2038Z"/>
        </g>
    </symbol>

    <symbol width="24" height="24" viewBox="0 0 24 24" id="time-icon">
        <mask id="mask0_40002449_17328" style="mask-type:alpha" maskUnits="userSpaceOnUse" x="0" y="0" width="24" height="24">
        <rect width="24" height="24"/>
        </mask>
        <g mask="url(#mask0_40002449_17328)">
        <path d="M15.473 16.527L16.527 15.473L12.75 11.696V7H11.25V12.3038L15.473 16.527ZM12.0017 21.5C10.6877 21.5 9.45267 21.2507 8.2965 20.752C7.14033 20.2533 6.13467 19.5766 5.2795 18.7218C4.42433 17.8669 3.74725 16.8617 3.24825 15.706C2.74942 14.5503 2.5 13.3156 2.5 12.0017C2.5 10.6877 2.74933 9.45267 3.248 8.2965C3.74667 7.14033 4.42342 6.13467 5.27825 5.2795C6.13308 4.42433 7.13833 3.74725 8.294 3.24825C9.44967 2.74942 10.6844 2.5 11.9983 2.5C13.3123 2.5 14.5473 2.74933 15.7035 3.248C16.8597 3.74667 17.8653 4.42342 18.7205 5.27825C19.5757 6.13308 20.2528 7.13833 20.7518 8.294C21.2506 9.44967 21.5 10.6844 21.5 11.9983C21.5 13.3123 21.2507 14.5473 20.752 15.7035C20.2533 16.8597 19.5766 17.8653 18.7218 18.7205C17.8669 19.5757 16.8617 20.2528 15.706 20.7518C14.5503 21.2506 13.3156 21.5 12.0017 21.5ZM12 20C14.2167 20 16.1042 19.2208 17.6625 17.6625C19.2208 16.1042 20 14.2167 20 12C20 9.78333 19.2208 7.89583 17.6625 6.3375C16.1042 4.77917 14.2167 4 12 4C9.78333 4 7.89583 4.77917 6.3375 6.3375C4.77917 7.89583 4 9.78333 4 12C4 14.2167 4.77917 16.1042 6.3375 17.6625C7.89583 19.2208 9.78333 20 12 20Z"/>
        </g>
    </symbol>

    <symbol width="24" height="24" viewBox="0 0 24 24" id="arrow-left-icon">
        <mask id="mask0_40002108_565" style="mask-type:alpha" maskUnits="userSpaceOnUse" x="0" y="0" width="24" height="24">
        <rect width="24" height="24"/>
        </mask>
        <g mask="url(#mask0_40002108_565)">
        <path d="M7.373 12.75L13.0693 18.4462L12 19.5L4.5 12L12 4.5L13.0693 5.55375L7.373 11.25H19.5V12.75H7.373Z"/>
        </g>
    </symbol>

    <symbol width="24" height="24" viewBox="0 0 24 24" id="arrow-right-icon">
        <mask id="mask0_40002108_566" style="mask-type:alpha" maskUnits="userSpaceOnUse" x="0" y="0" width="24" height="24">
        <rect width="24" height="24"/>
        </mask>
        <g mask="url(#mask0_40002108_566)">
        <path d="M16.627 12.75H4.5V11.25H16.627L10.9308 5.55375L12 4.5L19.5 12L12 19.5L10.9308 18.4462L16.627 12.75Z"/>
        </g>
    </symbol>

    <symbol width="24" height="24" viewBox="0 0 24 24" id="add-icon">
        <mask id="mask0_40002147_12083" style="mask-type:alpha" maskUnits="userSpaceOnUse" x="0" y="0" width="24" height="24">
        <rect width="24" height="24"/>
        </mask>
        <g mask="url(#mask0_40002147_12083)">
        <path d="M11.25 12.75H5.5V11.25H11.25V5.5H12.75V11.25H18.5V12.75H12.75V18.5H11.25V12.75Z"/>
        </g>
    </symbol>

    <symbol width="24" height="24" viewBox="0 0 24 24" id="remove-icon">
        <mask id="mask0_40002147_12084" style="mask-type:alpha" maskUnits="userSpaceOnUse" x="0" y="0" width="24" height="24">
        <rect width="24" height="24" fill="#D9D9D9"/>
        </mask>
        <g mask="url(#mask0_40002147_12084)">
        <path d="M5.5 12.75V11.25H18.5V12.75H5.5Z" fill="black"/>
        </g>
    </symbol>

    <symbol width="24" height="24" viewBox="0 0 24 24" id="instagram-icon">
        <path d="M17.3395 5.46C17.1022 5.46 16.8702 5.53038 16.6728 5.66224C16.4755 5.79409 16.3217 5.98151 16.2309 6.20078C16.14 6.42005 16.1163 6.66133 16.1626 6.89411C16.2089 7.12689 16.3232 7.34071 16.491 7.50853C16.6588 7.67635 16.8726 7.79064 17.1054 7.83694C17.3382 7.88324 17.5795 7.85948 17.7987 7.76866C18.018 7.67783 18.2054 7.52402 18.3373 7.32668C18.4691 7.12935 18.5395 6.89734 18.5395 6.66C18.5395 6.34174 18.4131 6.03652 18.188 5.81147C17.963 5.58643 17.6578 5.46 17.3395 5.46ZM21.9395 7.88C21.9201 7.0503 21.7647 6.2294 21.4795 5.45C21.2252 4.78313 20.8295 4.17928 20.3195 3.68C19.8243 3.16743 19.2191 2.77418 18.5495 2.53C17.7722 2.23616 16.9504 2.07721 16.1195 2.06C15.0595 2 14.7195 2 11.9995 2C9.27951 2 8.93951 2 7.87951 2.06C7.04866 2.07721 6.22685 2.23616 5.44951 2.53C4.78119 2.77665 4.17645 3.16956 3.67951 3.68C3.16694 4.17518 2.77369 4.78044 2.52951 5.45C2.23567 6.22734 2.07672 7.04915 2.05951 7.88C1.99951 8.94 1.99951 9.28 1.99951 12C1.99951 14.72 1.99951 15.06 2.05951 16.12C2.07672 16.9508 2.23567 17.7727 2.52951 18.55C2.77369 19.2196 3.16694 19.8248 3.67951 20.32C4.17645 20.8304 4.78119 21.2234 5.44951 21.47C6.22685 21.7638 7.04866 21.9228 7.87951 21.94C8.93951 22 9.27951 22 11.9995 22C14.7195 22 15.0595 22 16.1195 21.94C16.9504 21.9228 17.7722 21.7638 18.5495 21.47C19.2191 21.2258 19.8243 20.8326 20.3195 20.32C20.8318 19.8226 21.2278 19.2182 21.4795 18.55C21.7647 17.7706 21.9201 16.9497 21.9395 16.12C21.9395 15.06 21.9995 14.72 21.9995 12C21.9995 9.28 21.9995 8.94 21.9395 7.88ZM20.1395 16C20.1322 16.6348 20.0173 17.2637 19.7995 17.86C19.6398 18.2952 19.3834 18.6884 19.0495 19.01C18.7252 19.3405 18.3327 19.5964 17.8995 19.76C17.3032 19.9778 16.6743 20.0927 16.0395 20.1C15.0395 20.15 14.6695 20.16 12.0395 20.16C9.40951 20.16 9.03951 20.16 8.03951 20.1C7.3804 20.1123 6.72411 20.0109 6.09951 19.8C5.68529 19.6281 5.31087 19.3728 4.99951 19.05C4.6676 18.7287 4.41436 18.3352 4.25951 17.9C4.01537 17.2952 3.87996 16.6519 3.85951 16C3.85951 15 3.79951 14.63 3.79951 12C3.79951 9.37 3.79951 9 3.85951 8C3.86399 7.35106 3.98246 6.70795 4.20951 6.1C4.38556 5.67791 4.65578 5.30166 4.99951 5C5.30333 4.65617 5.6788 4.3831 6.09951 4.2C6.70906 3.98004 7.35151 3.86508 7.99951 3.86C8.99951 3.86 9.36951 3.8 11.9995 3.8C14.6295 3.8 14.9995 3.8 15.9995 3.86C16.6343 3.86728 17.2632 3.98225 17.8595 4.2C18.3139 4.36865 18.7218 4.64285 19.0495 5C19.3772 5.30718 19.6333 5.68273 19.7995 6.1C20.0218 6.70893 20.1368 7.35178 20.1395 8C20.1895 9 20.1995 9.37 20.1995 12C20.1995 14.63 20.1895 15 20.1395 16ZM11.9995 6.87C10.9853 6.87198 9.99447 7.17453 9.15217 7.73942C8.30986 8.30431 7.65389 9.1062 7.26715 10.0438C6.8804 10.9813 6.78024 12.0125 6.97931 13.0069C7.17838 14.0014 7.66775 14.9145 8.38559 15.631C9.10343 16.3474 10.0175 16.835 11.0124 17.0321C12.0072 17.2293 13.0382 17.1271 13.975 16.7385C14.9118 16.35 15.7124 15.6924 16.2756 14.849C16.8389 14.0056 17.1395 13.0142 17.1395 12C17.1408 11.3251 17.0087 10.6566 16.7508 10.033C16.4928 9.40931 16.1141 8.84281 15.6364 8.36605C15.1587 7.88929 14.5915 7.51168 13.9673 7.25493C13.3432 6.99818 12.6744 6.86736 11.9995 6.87ZM11.9995 15.33C11.3409 15.33 10.6971 15.1347 10.1495 14.7688C9.60185 14.4029 9.17503 13.8828 8.92299 13.2743C8.67095 12.6659 8.60501 11.9963 8.7335 11.3503C8.86199 10.7044 9.17914 10.111 9.64485 9.64533C10.1106 9.17963 10.7039 8.86247 11.3499 8.73398C11.9958 8.6055 12.6654 8.67144 13.2738 8.92348C13.8823 9.17552 14.4024 9.60234 14.7683 10.15C15.1342 10.6976 15.3295 11.3414 15.3295 12C15.3295 12.4373 15.2434 12.8703 15.076 13.2743C14.9087 13.6784 14.6634 14.0454 14.3542 14.3547C14.045 14.6639 13.6779 14.9092 13.2738 15.0765C12.8698 15.2439 12.4368 15.33 11.9995 15.33Z"/>
    </symbol>

    <symbol width="24" height="24" viewBox="0 0 24 24" id="facebook-icon">
        <path d="M14.0312 13.79V23H9.64438V13.79H6V10.0555H9.64438V8.69673C9.64438 3.65237 11.8293 1 16.4523 1C17.8696 1 18.2239 1.21967 19 1.39867V5.09247C18.1311 4.94601 17.8865 4.86465 16.9838 4.86465C15.9124 4.86465 15.3387 5.15756 14.8157 5.73522C14.2927 6.31287 14.0312 7.31362 14.0312 8.74557V10.0636H19L17.6671 13.7981H14.0312V13.79Z"/>
    </symbol>

    <symbol width="24" height="24" viewBox="0 0 24 24" id="youtube-icon">
        <path d="M23.0005 9.70998C23.05 8.27864 22.7369 6.858 22.0905 5.57998C21.6519 5.05558 21.0432 4.70169 20.3705 4.57998C17.588 4.32751 14.794 4.22403 12.0005 4.26998C9.21716 4.22194 6.43322 4.32208 3.66052 4.56998C3.11234 4.6697 2.60503 4.92683 2.20052 5.30998C1.30052 6.13998 1.20052 7.55998 1.10052 8.75998C0.955427 10.9175 0.955427 13.0824 1.10052 15.24C1.12945 15.9154 1.23001 16.5858 1.40052 17.24C1.52109 17.745 1.76504 18.2123 2.11051 18.6C2.51778 19.0034 3.0369 19.2752 3.60052 19.38C5.75643 19.6461 7.92873 19.7564 10.1005 19.71C13.6005 19.76 16.6705 19.71 20.3005 19.43C20.878 19.3316 21.4117 19.0595 21.8305 18.65C22.1105 18.3699 22.3196 18.0271 22.4405 17.65C22.7981 16.5526 22.9738 15.4041 22.9605 14.25C23.0005 13.69 23.0005 10.31 23.0005 9.70998ZM9.74051 14.85V8.65998L15.6605 11.77C14.0005 12.69 11.8105 13.73 9.74051 14.85Z"/>
    </symbol>

    <symbol width="44" height="30" viewBox="0 0 44 30" id="visa-card-icon">
        <rect x="0.177703" y="0.177703" width="43.6446" height="29.6446" fill="white" stroke="#E9F0CA" stroke-width="0.355405"/>
        <path fill-rule="evenodd" clip-rule="evenodd" d="M13.3574 20.3232H10.6919L8.69305 12.7408C8.59817 12.3921 8.39673 12.0837 8.10041 11.9384C7.36092 11.5732 6.54605 11.2825 5.6571 11.1359V10.844H9.95109C10.5437 10.844 10.9882 11.2825 11.0623 11.7918L12.0994 17.2612L14.7636 10.844H17.3551L13.3574 20.3232ZM18.8367 20.3234H16.3193L18.3922 10.8442H20.9096L18.8367 20.3234ZM24.1661 13.4701C24.2402 12.9596 24.6846 12.6677 25.2032 12.6677C26.0181 12.5944 26.9057 12.741 27.6465 13.1049L28.091 11.064C27.3502 10.7721 26.5353 10.6255 25.7958 10.6255C23.3525 10.6255 21.5746 11.9385 21.5746 13.7608C21.5746 15.1471 22.834 15.875 23.7229 16.3135C24.6846 16.7508 25.055 17.0427 24.9809 17.4799C24.9809 18.1358 24.2402 18.4277 23.5007 18.4277C22.6117 18.4277 21.7228 18.2091 20.9092 17.8439L20.4647 19.8861C21.3537 20.25 22.3154 20.3966 23.2043 20.3966C25.944 20.4686 27.6465 19.1569 27.6465 17.188C27.6465 14.7086 24.1661 14.5633 24.1661 13.4701ZM36.4574 20.3234L34.4586 10.8442H32.3116C31.8671 10.8442 31.4226 11.1362 31.2745 11.5734L27.5731 20.3234H30.1646L30.6818 18.9384H33.8659L34.1623 20.3234H36.4574ZM32.6819 13.3965L33.4214 16.969H31.3485L32.6819 13.3965Z" fill="#1434CB"/>
    </symbol>

    <symbol width="44" height="30" viewBox="0 0 44 30" id="mastercard-card-icon">
        <rect x="0.177703" y="0.177703" width="43.6446" height="29.6446" fill="white" stroke="#E9F0CA" stroke-width="0.355405"/>
        <path d="M27.8789 6.25049C32.6167 6.25049 36.458 10.1139 36.458 14.8794C36.458 19.6449 32.6167 23.5083 27.8789 23.5083C25.7547 23.5082 23.8127 22.7293 22.3145 21.4429C20.8162 22.7292 18.8742 23.5083 16.75 23.5083C12.0124 23.5081 8.17188 19.6448 8.17188 14.8794C8.17188 10.114 12.0124 6.25065 16.75 6.25049C18.8739 6.25049 20.8163 7.02891 22.3145 8.31494C23.8126 7.0288 25.7549 6.25054 27.8789 6.25049Z" fill="#ED0006"/>
        <path d="M27.8789 6.25098C32.6167 6.25098 36.458 10.1144 36.458 14.8799C36.4579 19.6453 32.6166 23.5088 27.8789 23.5088C25.7547 23.5087 23.8126 22.7297 22.3145 21.4434C24.1579 19.8607 25.329 17.5088 25.3291 14.8799C25.3291 12.2505 24.1584 9.89711 22.3145 8.31445C23.8125 7.0285 25.7551 6.25106 27.8789 6.25098Z" fill="#F9A000"/>
        <path d="M22.3143 8.31494C24.1581 9.89754 25.3289 12.2503 25.329 14.8794C25.329 17.5085 24.158 19.8612 22.3143 21.4438C20.4709 19.8612 19.3007 17.5083 19.3007 14.8794C19.3008 12.2505 20.4708 9.89754 22.3143 8.31494Z" fill="#FF5E00"/>
    </symbol>

    <symbol width="44" height="30" viewBox="0 0 44 30" id="american-express-card-icon">
        <g clip-path="url(#clip0_108_930)">
        <rect width="44" height="30" fill="#006FCF"/>
        <path d="M23.2216 19.4405C23.2216 19.744 23.018 20.0476 22.6109 20.0476H21.1862V18.9345H22.6109C23.018 18.9345 23.2216 19.1369 23.2216 19.4405Z" fill="white"/>
        <path d="M27.8011 18.9345C28.2082 18.9345 28.4118 19.1369 28.4118 19.4405C28.4118 19.744 28.2082 19.9464 27.8011 19.9464H26.3764V18.9345H27.8011Z" fill="white"/>
        <path fill-rule="evenodd" clip-rule="evenodd" d="M28.0047 23.8929H42.2523C42.6609 23.8929 43.0238 23.8023 43.3717 23.6514V22.4529C43.0902 22.6589 42.7146 22.7797 42.2523 22.7797H39.6063V21.6667H42.2523C42.4558 21.6667 42.6594 21.5655 42.8629 21.3631C42.8629 21.1607 42.6594 20.9583 42.3541 20.9583H41.1328C40.1152 20.9583 39.5045 20.3512 39.5045 19.4405C39.5045 18.5298 40.1152 17.8214 41.2346 17.8214H43.3717V16.8095H17.6243L16.9119 17.7202L16.1995 16.8095H8.7704V23.8929H16.1995L16.9119 22.8809L17.6243 23.8929H22.2039V22.2738H22.7127C23.2216 22.2738 23.6286 22.1726 24.0357 22.0714V23.8929H27.0888V22.6786L28.0047 23.8929ZM14.0624 18.9345V17.8214H9.88986V22.8809H14.0624V22.7797H15.6907L16.9119 21.1607L18.1331 22.7797H19.7614L17.726 20.25L19.7614 17.7202H18.1331L16.9119 19.2381L15.6907 17.7202H14.0624L16.0977 20.25L14.0624 22.7797V21.7678H11.2129V20.8571H13.9606V19.744H11.2129V18.9345H14.0624ZM19.8632 22.7797H21.1862V21.1607H22.7127C23.8322 21.1607 24.5446 20.4524 24.5446 19.4405C24.5446 18.4286 23.8322 17.7202 22.8145 17.7202H19.8632V22.7797ZM26.3764 21.0595H26.8852L28.4118 22.8809H30.0401L28.4118 21.0595C29.2259 20.8571 29.7348 20.25 29.7348 19.4405C29.7348 18.4286 29.0224 17.8214 28.0047 17.8214H25.0534V22.8809H26.3764V21.0595ZM34.3143 18.9345V17.8214H30.1418V22.8809H34.3143V21.7678H31.4648V20.8571H34.2126V19.744H31.4648V18.9345H34.3143ZM37.5709 21.6667H34.925V22.7797H37.5709C38.6904 22.7797 39.301 22.0714 39.301 21.1607C39.301 20.25 38.6904 19.744 37.6727 19.744H36.4515C36.1462 19.744 36.0444 19.5417 36.0444 19.3393C36.0444 19.0357 36.248 18.9345 36.4515 18.9345H38.6904L39.1992 17.8214H36.5533C35.4338 17.8214 34.8232 18.5298 34.8232 19.4405C34.8232 20.3512 35.4338 20.9583 36.4515 20.9583H37.6727C37.978 20.9583 38.1816 21.1607 38.1816 21.3631C37.978 21.5655 37.7745 21.6667 37.5709 21.6667Z" fill="white"/>
        <path d="M43.3718 18.9345L43.3717 19.9833C43.1073 19.826 42.7637 19.744 42.3541 19.744H41.1328C40.8275 19.744 40.624 19.5417 40.624 19.3393C40.624 19.0357 40.8275 18.9345 41.1328 18.9345H43.3718Z" fill="white"/>
        <path d="M3.68197 9.72618L2.96958 11.4464H4.39435L3.68197 9.72618Z" fill="white"/>
        <path d="M22.2039 10.1309C22.2039 9.82737 22.0003 9.62499 21.5933 9.62499H20.1685V10.6369H21.5933C22.0003 10.6369 22.2039 10.4345 22.2039 10.1309Z" fill="white"/>
        <path d="M31.9737 9.72618L31.2613 11.4464H32.686L31.9737 9.72618Z" fill="white"/>
        <path fill-rule="evenodd" clip-rule="evenodd" d="M0.628906 14.6845H2.76605L3.17312 13.6726H4.08904L4.49612 14.6845H20.9826V13.4702L21.8986 14.5833H26.3764V13.9762C26.987 14.4821 27.8011 14.5833 28.5135 14.5833H31.1595L31.5666 13.5714H32.4825L32.8896 14.5833H37.2656V13.369L38.1816 14.5833H41.3364V7.5H38.1816V8.81547L37.3674 7.5H34.4161V9.32143L33.602 7.5H28.7171C27.8011 7.5 27.0888 7.80357 26.4782 8.20833V7.5H10.6022L10.0934 8.91667L9.58455 7.5H5.92088V9.32143L5.10673 7.5H2.15544L0.628906 10.9405V13.5714V14.6845ZM0.628906 13.5714H2.05367L2.46074 12.5595H4.80142L5.2085 13.5714H6.63326L4.49612 8.51189H2.76605L0.628906 13.5714ZM10.5005 13.5714H9.38101L8.15979 9.82737V13.5714H6.8368V8.51189H8.87217L9.99162 11.75L11.1111 8.51189H13.1465V13.5714H11.8235V9.82737L10.5005 13.5714ZM18.2349 8.51189V9.62499H15.3854V10.4345H18.1331V11.5476H15.3854V12.4583H18.2349V13.5714H14.0624V8.51189H18.2349ZM20.6773 11.75H20.1685L20.2703 13.5714H18.9473V8.51189H21.7968C22.8145 8.51189 23.5269 9.11904 23.5269 10.1309C23.5269 10.9405 23.018 11.5476 22.2039 11.75L23.8322 13.5714H22.2039L20.6773 11.75ZM25.3587 13.5714H24.0357V8.51189H25.3587V13.5714ZM28.9206 12.4583L28.31 13.5714C26.8852 13.5714 25.9693 12.6607 25.9693 11.1428V11.0417C25.9693 9.5238 26.7835 8.51189 28.4118 8.51189H29.8365V9.72618H28.5135C27.5976 9.72618 27.1905 10.2321 27.1905 11.0417V11.1428C27.1905 11.9524 27.6994 12.4583 28.5135 12.4583H28.9206ZM35.0267 13.5714H33.602L33.1949 12.5595H30.8542L30.4471 13.5714H29.0224L31.1595 8.51189H32.8896L35.0267 13.5714ZM40.0134 13.5714H38.4869L36.3497 10.3333V13.5714H35.0267V8.51189H36.655L38.6904 11.6488V8.51189H40.0134V13.5714Z" fill="white"/>
        </g>
        <defs>
        <clipPath id="clip0_108_930">
        <rect width="44" height="30" fill="white"/>
        </clipPath>
        </defs>
    </symbol>

    <symbol width="43" height="30" viewBox="0 0 43 30" id="discover-card-icon">
        <rect x="0.177703" y="0.177703" width="42.6446" height="29.6446" fill="white" stroke="#E9F0CA" stroke-width="0.355405"/>
        <path d="M18.1025 29.375L42.3668 22.1875V27.598C42.3668 28.5794 41.5712 29.375 40.5898 29.375H18.1025Z" fill="#FD6020"/>
        <path d="M18.3379 12.0137C18.8051 12.0137 19.3388 12.081 19.7393 12.3496V13.6924C19.4055 13.2895 18.8718 13.0205 18.3379 13.0205C17.27 13.0877 16.4021 14.028 16.4688 15.1025V15.2373C16.4689 16.3116 17.3366 17.117 18.4043 17.1172C18.9381 17.1172 19.4056 16.849 19.7393 16.4463V17.7891C19.2722 17.9904 18.8052 18.1249 18.2715 18.125C16.6028 18.125 15.2676 16.7141 15.2676 15.0352C15.2677 13.2892 16.6026 11.8794 18.3379 12.0137ZM28.8164 16.043L30.4189 12.0137H31.6201L29.1504 18.125H28.5498L26.0801 12.0137H27.2812L28.8164 16.043ZM12.999 11.8789C13.5995 11.879 14.1999 12.148 14.667 12.5508L14.0664 13.3564C13.7995 13.088 13.4654 12.8867 13.1318 12.8867C12.7316 12.8199 12.3978 13.1558 12.3311 13.5586C12.3312 13.8942 12.532 14.0283 13.1992 14.2969C14.5339 14.8341 14.8678 15.2372 14.9346 16.043V16.2451C14.8676 17.3194 13.9994 18.1248 12.9316 18.0576C12.1308 18.0575 11.3301 17.6546 10.9297 16.916L11.6641 16.1777C11.8644 16.6477 12.3314 16.9834 12.8652 16.9834H12.9316C13.3321 16.9834 13.7334 16.5804 13.7334 16.1104C13.7334 15.8418 13.5996 15.6402 13.3994 15.5059C13.1325 15.3716 12.8655 15.2371 12.5986 15.1699C11.5308 14.8342 11.1964 14.3643 11.1963 13.5586V13.4912C11.263 12.551 12.0646 11.8117 12.999 11.8789ZM6.05664 12.0137C7.65853 12.0808 8.9271 13.4243 8.86035 15.0361C8.86012 15.9089 8.45926 16.7151 7.79199 17.3193C7.19149 17.7891 6.45748 18.0582 5.72363 17.9912H4.05469V12.0137H6.05664ZM37.7607 12.0137C39.0954 12.0138 39.8291 12.6182 39.8291 13.7598C39.8956 14.6327 39.295 15.3716 38.4941 15.5059L40.2969 17.9912H38.8955L37.3604 15.5732H37.2266V17.9912H36.0918V12.0137H37.7607ZM10.4629 17.9902H9.32812V12.0137H10.4629V17.9902ZM35.3584 13.0205H33.2891V14.3643H35.291V15.3711H33.2891V16.9834H35.3584V17.9902H32.1543V12.0137H35.3584V13.0205ZM5.52344 13.0205H5.18945V16.9834H5.52344C6.0572 17.0504 6.65824 16.8493 7.05859 16.5137C7.45894 16.1109 7.65905 15.5729 7.65918 14.9688C7.65918 14.4317 7.45875 13.8941 7.05859 13.4912C6.65824 13.1555 6.05729 12.9535 5.52344 13.0205ZM37.2266 14.7666H37.5605C38.2942 14.7665 38.6277 14.431 38.6279 13.8271C38.6279 13.29 38.2945 12.9542 37.5605 12.9541H37.2266V14.7666Z" fill="black"/>
        <path fill-rule="evenodd" clip-rule="evenodd" d="M23.1445 11.875C21.4759 11.875 20.0742 13.2182 20.0742 14.9643C20.0742 16.6433 21.4091 18.0536 23.1445 18.1208C24.8799 18.1879 26.2148 16.7776 26.2816 15.0315C26.2148 13.2853 24.8799 11.875 23.1445 11.875V11.875Z" fill="#FD6020"/>
    </symbol>

    <symbol width="44" height="30" viewBox="0 0 44 30" id="apple-pay-icon">
        <rect x="0.177703" y="0.177703" width="43.6446" height="29.6446" fill="white" stroke="#E9F0CA" stroke-width="0.355405"/>
        <path fill-rule="evenodd" clip-rule="evenodd" d="M10.4931 11.1672C11.084 11.2167 11.6749 10.8698 12.0442 10.4299C12.4074 9.97766 12.6474 9.37051 12.5859 8.75098C12.0627 8.77576 11.4164 9.09792 11.047 9.55018C10.7085 9.94049 10.4192 10.5724 10.4931 11.1672ZM17.5225 19.1469V9.48828H21.1233C22.9822 9.48828 24.281 10.7769 24.281 12.6603C24.281 14.5437 22.9576 15.8447 21.0741 15.8447H19.012V19.1469H17.5225ZM12.5794 11.2848C12.0588 11.2547 11.5838 11.4424 11.2001 11.594C10.9532 11.6916 10.7441 11.7742 10.5851 11.7742C10.4066 11.7742 10.1889 11.6872 9.94441 11.5895C9.62411 11.4614 9.25792 11.315 8.8739 11.322C7.9937 11.3344 7.17504 11.8362 6.7257 12.6354C5.80241 14.2338 6.48565 16.6004 7.37817 17.9015C7.81519 18.5458 8.33839 19.2521 9.02779 19.2273C9.33108 19.2158 9.54925 19.1226 9.77503 19.0261C10.035 18.9151 10.305 18.7998 10.7266 18.7998C11.1337 18.7998 11.3919 18.9121 11.6398 19.0199C11.8755 19.1225 12.1018 19.2209 12.4378 19.2149C13.1518 19.2025 13.6012 18.5706 14.0382 17.9263C14.5098 17.2347 14.7171 16.5598 14.7485 16.4574L14.7522 16.4456C14.7515 16.4448 14.7456 16.4421 14.7354 16.4374C14.5777 16.3647 13.3727 15.8095 13.3611 14.3205C13.3495 13.0708 14.3169 12.4376 14.4692 12.3379L14.4692 12.3379C14.4785 12.3318 14.4847 12.3278 14.4875 12.3256C13.872 11.4087 12.9118 11.3096 12.5794 11.2848ZM27.0017 19.2211C27.9373 19.2211 28.8052 18.7441 29.1992 17.9882H29.2299V19.1468H30.6087V14.3392C30.6087 12.9452 29.5008 12.0469 27.7957 12.0469C26.2138 12.0469 25.0443 12.9576 25.0012 14.2091H26.3431C26.4539 13.6143 27.0017 13.224 27.7527 13.224C28.6636 13.224 29.1745 13.6515 29.1745 14.4383V14.9711L27.3156 15.0826C25.586 15.1879 24.6504 15.9004 24.6504 17.1395C24.6504 18.3909 25.6168 19.2211 27.0017 19.2211ZM27.4014 18.0751C26.6073 18.0751 26.1026 17.691 26.1026 17.1024C26.1026 16.4953 26.5889 16.1421 27.5183 16.0864L29.1741 15.9811V16.5263C29.1741 17.4308 28.4108 18.0751 27.4014 18.0751ZM35.1813 19.5245C34.5842 21.2159 33.901 21.7735 32.4484 21.7735C32.3376 21.7735 31.9682 21.7611 31.8821 21.7363V20.5777C31.9744 20.5901 32.2021 20.6025 32.3191 20.6025C32.9777 20.6025 33.347 20.3237 33.5748 19.5989L33.7102 19.1714L31.1865 12.1396H32.7438L34.4981 17.8456H34.5289L36.2831 12.1396H37.7973L35.1813 19.5245ZM19.0116 10.7519H20.7289C22.0215 10.7519 22.7602 11.4458 22.7602 12.6663C22.7602 13.8868 22.0215 14.5868 20.7228 14.5868H19.0116V10.7519Z" fill="black"/>
    </symbol>

    <symbol width="44" height="30" viewBox="0 0 44 30" id="paypal-icon">
        <rect x="0.177703" y="0.177703" width="43.6446" height="29.6446" fill="white" stroke="#E9F0CA" stroke-width="0.355405"/>
        <path fill-rule="evenodd" clip-rule="evenodd" d="M8.64556 10.626H5.89333C5.70499 10.626 5.54481 10.7621 5.51544 10.9468L4.4023 17.9635C4.38018 18.102 4.48803 18.2268 4.62928 18.2268H5.94323C6.13156 18.2268 6.29174 18.0907 6.32111 17.9055L6.62134 16.0131C6.6503 15.8277 6.81087 15.6918 6.99882 15.6918H7.87008C9.68308 15.6918 10.7293 14.8196 11.0027 13.0911C11.1258 12.335 11.0079 11.7408 10.6517 11.3246C10.2606 10.8678 9.56668 10.626 8.64556 10.626ZM8.96309 13.1887C8.81261 14.1706 8.05803 14.1706 7.32842 14.1706H6.9131L7.20446 12.3368C7.22176 12.2261 7.31834 12.1444 7.43103 12.1444H7.62138C8.11839 12.1444 8.58727 12.1444 8.82956 12.4261C8.9739 12.5942 9.01822 12.8438 8.96309 13.1887ZM16.8727 13.1572H15.5547C15.4424 13.1572 15.3454 13.2389 15.328 13.3498L15.2697 13.7162L15.1776 13.5835C14.8922 13.1717 14.2561 13.0341 13.621 13.0341C12.1645 13.0341 10.9206 14.1308 10.6783 15.6692C10.5524 16.4365 10.7314 17.1703 11.1692 17.682C11.5709 18.1525 12.1457 18.3486 12.8293 18.3486C14.0028 18.3486 14.6537 17.5984 14.6537 17.5984L14.5948 17.9626C14.5727 18.1018 14.6805 18.2266 14.8209 18.2266H16.0082C16.197 18.2266 16.3562 18.0905 16.386 17.9053L17.0984 13.4205C17.1209 13.2826 17.0135 13.1572 16.8727 13.1572ZM15.0355 15.7076C14.9083 16.4561 14.3106 16.9586 13.5486 16.9586C13.1658 16.9586 12.8599 16.8366 12.6636 16.6054C12.4688 16.3758 12.3947 16.0488 12.4567 15.6848C12.5755 14.9425 13.1832 14.4237 13.9337 14.4237C14.3078 14.4237 14.6121 14.5472 14.8125 14.7805C15.0133 15.0162 15.093 15.345 15.0355 15.7076ZM22.5675 13.157H23.892C24.0775 13.157 24.1857 13.3639 24.0803 13.5151L19.6753 19.8367C19.604 19.9391 19.4865 20 19.3609 20H18.0381C17.8519 20 17.7431 19.7915 17.851 19.6399L19.2226 17.715L17.7638 13.4587C17.7133 13.3107 17.8232 13.157 17.9815 13.157H19.2829C19.452 13.157 19.6012 13.2674 19.65 13.4283L20.4242 15.999L22.2509 13.3239C22.3224 13.2194 22.4413 13.157 22.5675 13.157Z" fill="#253B80"/>
        <path fill-rule="evenodd" clip-rule="evenodd" d="M36.9282 17.9629L38.0577 10.8179C38.075 10.707 38.1716 10.6254 38.2839 10.625H39.5556C39.696 10.625 39.8038 10.7502 39.7816 10.8887L38.6678 17.9049C38.6387 18.0901 38.4786 18.2262 38.2899 18.2262H37.1542C37.0138 18.2262 36.906 18.1014 36.9282 17.9629ZM28.2777 10.6254H25.525C25.3371 10.6254 25.1769 10.7615 25.1475 10.9462L24.0344 17.9629C24.0122 18.1014 24.1201 18.2262 24.2607 18.2262H25.6731C25.8044 18.2262 25.9167 18.131 25.9371 18.0014L26.253 16.0125C26.2821 15.8271 26.4426 15.6912 26.6305 15.6912H27.5013C29.3147 15.6912 30.3608 14.8189 30.6344 13.0905C30.7578 12.3344 30.6392 11.7402 30.2831 11.324C29.8922 10.8672 29.1989 10.6254 28.2777 10.6254ZM28.5953 13.1881C28.4452 14.17 27.6905 14.17 26.9605 14.17H26.5456L26.8374 12.3362C26.8547 12.2255 26.9505 12.1438 27.0635 12.1438H27.2538C27.7505 12.1438 28.2198 12.1438 28.4619 12.4254C28.6064 12.5936 28.6504 12.8432 28.5953 13.1881ZM36.5041 13.1566H35.187C35.0738 13.1566 34.9777 13.2383 34.9608 13.3492L34.9025 13.7156L34.8099 13.5829C34.5246 13.1711 33.8888 13.0335 33.2537 13.0335C31.7972 13.0335 30.5537 14.1302 30.3114 15.6686C30.1859 16.4359 30.3641 17.1697 30.802 17.6814C31.2044 18.1519 31.7784 18.348 32.4621 18.348C33.6355 18.348 34.2862 17.5978 34.2862 17.5978L34.2276 17.962C34.2054 18.1012 34.3132 18.226 34.4546 18.226H35.6413C35.8292 18.226 35.9893 18.0899 36.0188 17.9047L36.7315 13.4199C36.7533 13.282 36.6455 13.1566 36.5041 13.1566ZM34.6671 15.7069C34.5406 16.4555 33.9423 16.958 33.18 16.958C32.798 16.958 32.4915 16.836 32.295 16.6048C32.1002 16.3752 32.027 16.0482 32.0883 15.6842C32.2077 14.9419 32.8146 14.4231 33.5651 14.4231C33.9395 14.4231 34.2436 14.5466 34.4442 14.7799C34.6457 15.0156 34.7254 15.3444 34.6671 15.7069Z" fill="#179BD7"/>
    </symbol>

    <symbol width="43" height="30" viewBox="0 0 43 30" id="shop-pay-icon">
        <rect x="0.177703" y="0.177703" width="42.6446" height="29.6446" fill="white" stroke="#E9F0CA" stroke-width="0.355405"/>
        <path d="M20.838 12.3652C20.8512 12.3655 20.8639 12.3712 20.8732 12.3809C20.8824 12.3905 20.8878 12.4035 20.8878 12.417V13.1406C21.2228 12.7176 21.7429 12.3672 22.3634 12.3672C23.7565 12.3673 24.8536 13.5451 24.8527 14.998C24.8525 16.5118 23.7499 17.6317 22.4269 17.6318C21.7234 17.6318 21.1844 17.2648 20.9874 16.958H20.9689V19.1816C20.9688 19.195 20.9634 19.2074 20.9542 19.2168C20.9449 19.2263 20.9322 19.2324 20.9191 19.2324H19.6798C19.6666 19.2324 19.6531 19.2262 19.6437 19.2168C19.6345 19.2074 19.6293 19.1949 19.629 19.1816V12.417C19.629 12.4033 19.6342 12.3895 19.6437 12.3799C19.6531 12.3703 19.6665 12.3652 19.6798 12.3652H20.838ZM21.9454 13.6875C21.6898 13.7424 21.4558 13.8734 21.2736 14.0645C21.0913 14.2557 20.9688 14.4983 20.922 14.7607C20.8753 15.0231 20.9064 15.2937 21.0109 15.5381C21.1155 15.7826 21.2895 15.9905 21.5099 16.1338C21.7301 16.2769 21.9872 16.3494 22.2482 16.3428C22.419 16.3408 22.5882 16.3051 22.7452 16.2363C22.9022 16.1676 23.0441 16.0674 23.1632 15.9424C23.2823 15.8174 23.3765 15.6699 23.4396 15.5078C23.5026 15.3458 23.5331 15.1723 23.5304 14.998C23.5298 14.7312 23.4511 14.4701 23.3048 14.249C23.1585 14.0282 22.9512 13.8569 22.7091 13.7568C22.4669 13.6567 22.2011 13.6326 21.9454 13.6875Z" fill="#5A31F4"/>
        <path d="M12.8358 13.3786C12.5493 12.765 12.0062 12.3686 11.1878 12.3686C10.9366 12.3731 10.6897 12.4364 10.4663 12.5537C10.2429 12.671 10.0488 12.8391 9.89906 13.0451L9.8692 13.0823V10.6774C9.8692 10.6635 9.86379 10.6502 9.85417 10.6403C9.84454 10.6305 9.83149 10.625 9.81788 10.625H8.66074C8.64729 10.6252 8.63448 10.6309 8.62505 10.6407C8.61563 10.6505 8.61035 10.6637 8.61035 10.6774V17.5757C8.61035 17.5893 8.61566 17.6024 8.62511 17.612C8.63456 17.6217 8.64738 17.6271 8.66074 17.6271H9.9C9.91345 17.6271 9.92636 17.6217 9.93596 17.6121C9.94556 17.6025 9.95108 17.5894 9.95132 17.5757V14.6344C9.95132 14.0627 10.3246 13.6578 10.9218 13.6578C11.575 13.6578 11.7402 14.2066 11.7402 14.7659V17.5757C11.7402 17.5893 11.7455 17.6024 11.755 17.612C11.7644 17.6217 11.7772 17.6271 11.7906 17.6271H13.0271C13.0405 17.6271 13.0534 17.6217 13.063 17.6121C13.0726 17.6025 13.0781 17.5894 13.0784 17.5757V14.5982C13.0784 14.4962 13.0784 14.3962 13.0653 14.299C13.0441 13.9805 12.9663 13.6686 12.8358 13.3786Z" fill="#5A31F4"/>
        <path d="M6.6484 14.4007C6.6484 14.4007 6.01758 14.2492 5.78522 14.1882C5.55286 14.1272 5.14693 13.9976 5.14693 13.6841C5.14693 13.3707 5.47447 13.2706 5.80668 13.2706C6.13889 13.2706 6.50842 13.3526 6.53735 13.7289C6.53852 13.7425 6.54464 13.7551 6.55449 13.7643C6.56434 13.7735 6.57721 13.7785 6.59054 13.7785L7.81207 13.7737C7.81925 13.7737 7.82637 13.7722 7.83297 13.7693C7.83956 13.7664 7.8455 13.7621 7.8504 13.7568C7.85531 13.7514 7.85908 13.7451 7.86147 13.7381C7.86387 13.7312 7.86484 13.7239 7.86432 13.7165C7.78874 12.5122 6.75385 12.0815 5.79921 12.0815C4.66728 12.0815 3.83955 12.8438 3.83955 13.6841C3.83955 14.2978 4.00939 14.8732 5.34476 15.2734C5.57899 15.343 5.8972 15.4335 6.17528 15.5126C6.50936 15.6079 6.68946 15.7517 6.68946 15.9785C6.68946 16.2415 6.31619 16.4244 5.94945 16.4244C5.41848 16.4244 5.04148 16.2234 5.01068 15.8622C5.00908 15.849 5.00278 15.8369 4.99297 15.8281C4.98316 15.8193 4.97054 15.8145 4.95749 15.8146L3.73877 15.8203C3.73162 15.8203 3.72455 15.8218 3.71797 15.8246C3.7114 15.8275 3.70545 15.8317 3.70048 15.8369C3.69552 15.8421 3.69164 15.8484 3.68908 15.8552C3.68652 15.862 3.68533 15.8692 3.68558 15.8765C3.74157 17.0132 4.81658 17.6259 5.81881 17.6259C7.31189 17.6259 7.98657 16.7684 7.98657 15.9651C7.98844 15.5878 7.90352 14.7284 6.6484 14.4007Z" fill="#5A31F4"/>
        <path d="M15.9586 12.0693C14.8024 12.0693 14.2257 12.4705 13.7629 12.7916L13.7489 12.8011C13.725 12.8178 13.7082 12.843 13.7018 12.8718C13.6954 12.9006 13.6999 12.9308 13.7144 12.9564L14.1716 13.7606C14.1802 13.7756 14.1919 13.7885 14.2059 13.7984C14.22 13.8083 14.236 13.8149 14.2528 13.8177C14.2693 13.8208 14.2862 13.82 14.3023 13.8156C14.3184 13.8111 14.3334 13.8031 14.3461 13.792L14.3825 13.7615C14.6205 13.5576 15.0021 13.2851 15.926 13.2108C16.4402 13.1689 16.8844 13.3061 17.2119 13.6186C17.5721 13.9578 17.7877 14.5056 17.7877 15.084C17.7877 16.1483 17.1736 16.8171 16.1873 16.8305C15.3745 16.8257 14.8286 16.3931 14.8286 15.7538C14.8286 15.4146 14.9788 15.1936 15.2718 14.9725C15.2942 14.9562 15.31 14.9321 15.3164 14.9048C15.3227 14.8775 15.3192 14.8487 15.3064 14.8239L14.8958 14.0311C14.8882 14.017 14.8779 14.0044 14.8656 13.9943C14.8533 13.9842 14.8391 13.9766 14.8239 13.9721C14.8084 13.9673 14.792 13.966 14.776 13.9681C14.7599 13.9703 14.7444 13.9758 14.7306 13.9845C14.2696 14.2636 13.7041 14.7743 13.7349 15.7557C13.7722 17.0048 14.7894 17.9586 16.1117 17.9976H16.1779H16.2685C17.8399 17.9452 18.9747 16.7542 18.9747 15.1393C18.9747 13.6567 17.9164 12.0693 15.9586 12.0693Z" fill="#5A31F4"/>
        <path d="M37.9912 10.6416C38.7214 10.6416 39.3134 11.2457 39.3135 11.9912V17.9062C39.3135 18.6519 38.7215 19.2568 37.9912 19.2568H27.4102C26.6799 19.2568 26.0879 18.6519 26.0879 17.9062V11.9912C26.088 11.2457 26.68 10.6416 27.4102 10.6416H37.9912ZM34.6826 13.6807C34.6715 13.6808 34.6603 13.6842 34.6504 13.6895C34.6407 13.6947 34.6324 13.7019 34.626 13.7109C34.6196 13.7201 34.615 13.731 34.6133 13.7422C34.6116 13.7534 34.6127 13.7656 34.6162 13.7764L35.7676 16.7969C35.7731 16.8124 35.7731 16.8292 35.7676 16.8447L35.7314 16.9619C35.689 17.1073 35.5998 17.2347 35.4785 17.3223C35.3573 17.4097 35.2107 17.4528 35.0625 17.4453C34.9764 17.4452 34.8902 17.4373 34.8057 17.4209C34.7954 17.4189 34.7845 17.4192 34.7744 17.4219C34.7645 17.4246 34.755 17.4289 34.7471 17.4355C34.7391 17.4423 34.7329 17.4514 34.7285 17.4609C34.7241 17.4706 34.7216 17.4815 34.7217 17.4922V18.002C34.7209 18.0183 34.7252 18.0345 34.7344 18.0479C34.7436 18.0612 34.7571 18.0714 34.7725 18.0762C34.87 18.1033 34.9712 18.1158 35.0723 18.1133C35.6088 18.1133 36.0989 17.9131 36.3789 17.1338L37.6104 13.7793C37.6139 13.7685 37.6149 13.7564 37.6133 13.7451C37.6116 13.734 37.608 13.7231 37.6016 13.7139C37.5951 13.7046 37.586 13.6977 37.5762 13.6924C37.5664 13.6872 37.5559 13.6838 37.5449 13.6836H36.9707C36.9558 13.6835 36.9408 13.6884 36.9287 13.6973C36.9167 13.7062 36.9079 13.719 36.9033 13.7334L36.2246 15.8574C36.2194 15.8713 36.2102 15.8841 36.1982 15.8926C36.1864 15.9008 36.1725 15.9052 36.1582 15.9053C36.1438 15.9053 36.1291 15.9009 36.1172 15.8926C36.1052 15.8841 36.096 15.8713 36.0908 15.8574L35.3086 13.7275C35.3034 13.7139 35.294 13.7017 35.2822 13.6934C35.2705 13.6852 35.2564 13.6808 35.2422 13.6807H34.6826ZM32.9287 13.5977C32.0732 13.5977 31.672 13.9743 31.5898 14.4697C31.5884 14.4798 31.589 14.4902 31.5918 14.5C31.5946 14.5099 31.5998 14.5196 31.6064 14.5273C31.6131 14.5349 31.6217 14.5409 31.6309 14.5449C31.64 14.5489 31.6502 14.551 31.6602 14.5508H32.208C32.2229 14.5513 32.2379 14.547 32.25 14.5381C32.2621 14.5291 32.2703 14.5156 32.2744 14.501C32.3267 14.2925 32.55 14.1651 32.9033 14.165C33.257 14.165 33.4775 14.3072 33.4775 14.6416V14.8086L32.9229 14.8281C32.3993 14.8491 32.0461 14.9399 31.8184 15.1143C31.7059 15.1964 31.6153 15.3057 31.5547 15.4326C31.4941 15.5597 31.4656 15.7005 31.4717 15.8418C31.4717 16.4211 31.8886 16.7568 32.5166 16.7549C32.9448 16.7549 33.2138 16.6214 33.3789 16.4375C33.3858 16.4284 33.3954 16.422 33.4062 16.4189C33.4169 16.416 33.4282 16.416 33.4385 16.4199C33.4488 16.424 33.4579 16.4319 33.4639 16.4414C33.4698 16.4512 33.4726 16.4632 33.4717 16.4746V16.6055C33.4716 16.6148 33.4741 16.6242 33.4775 16.6328C33.481 16.6415 33.4858 16.6496 33.4922 16.6562C33.4986 16.6629 33.5062 16.6682 33.5146 16.6719C33.5232 16.6755 33.5327 16.6777 33.542 16.6777H34.0957C34.1048 16.6777 34.1137 16.6754 34.1221 16.6719C34.1306 16.6682 34.139 16.663 34.1455 16.6562C34.1519 16.6496 34.1567 16.6415 34.1602 16.6328C34.1636 16.6242 34.1651 16.6148 34.165 16.6055V14.8535C34.165 14.0295 33.8375 13.5977 32.9287 13.5977ZM28.2256 12.1699C28.2071 12.1699 28.1889 12.1772 28.1758 12.1904C28.1627 12.2038 28.1553 12.2223 28.1553 12.2412V16.6084C28.1556 16.6271 28.1629 16.645 28.1758 16.6582C28.1889 16.6716 28.2071 16.6794 28.2256 16.6797H28.8115C28.83 16.6796 28.8473 16.6715 28.8604 16.6582C28.8734 16.6449 28.8808 16.6272 28.8809 16.6084V15.3984C28.8809 15.3796 28.8884 15.361 28.9014 15.3477C28.9145 15.3343 28.9326 15.3262 28.9512 15.3262H29.7832C30.6659 15.3262 31.2977 14.6693 31.2979 13.748C31.2979 12.8315 30.666 12.1699 29.7832 12.1699H28.2256ZM33.4775 15.4619C33.4774 15.9315 33.1934 16.1963 32.7139 16.1963C32.3615 16.1962 32.1593 16.06 32.1592 15.8154C32.1592 15.5449 32.3801 15.3834 32.7588 15.3633L33.4775 15.3252V15.4619ZM29.7393 12.833C30.2187 12.8332 30.5723 13.2203 30.5723 13.748C30.5721 14.2766 30.2186 14.6619 29.7393 14.6621H28.9512C28.9328 14.6621 28.9154 14.6548 28.9023 14.6416C28.8892 14.6284 28.8811 14.6106 28.8809 14.5918V12.9043C28.8812 12.8855 28.8893 12.8678 28.9023 12.8545C28.9154 12.8412 28.9327 12.8333 28.9512 12.833H29.7393Z" fill="#5A31F4"/>
    </symbol>

    <symbol width="24" height="24" viewBox="0 0 24 24" id="search-icon">
        <mask id="mask0_40002088_494" style="mask-type:alpha" maskUnits="userSpaceOnUse" x="0" y="0" width="24" height="24">
        <rect width="24" height="24"/>
        </mask>
        <g mask="url(#mask0_40002088_494)">
        <path d="M19.5423 20.577L13.2616 14.296C12.7616 14.7088 12.1866 15.0319 11.5366 15.2653C10.8866 15.4986 10.2141 15.6153 9.5193 15.6153C7.81014 15.6153 6.36364 15.0235 5.1798 13.84C3.99597 12.6565 3.40405 11.2103 3.40405 9.50152C3.40405 7.79285 3.9958 6.34618 5.1793 5.16152C6.3628 3.97702 7.80897 3.38477 9.5178 3.38477C11.2265 3.38477 12.6731 3.97668 13.8578 5.16051C15.0423 6.34435 15.6346 7.79085 15.6346 9.50002C15.6346 10.2142 15.5147 10.8963 15.2751 11.5463C15.0352 12.1963 14.7153 12.7616 14.3153 13.2423L20.5961 19.523L19.5423 20.577ZM9.5193 14.1155C10.8078 14.1155 11.8991 13.6683 12.7933 12.774C13.6876 11.8798 14.1348 10.7885 14.1348 9.50002C14.1348 8.21152 13.6876 7.12018 12.7933 6.22601C11.8991 5.33168 10.8078 4.88452 9.5193 4.88452C8.2308 4.88452 7.13947 5.33168 6.2453 6.22601C5.35097 7.12018 4.9038 8.21152 4.9038 9.50002C4.9038 10.7885 5.35097 11.8798 6.2453 12.774C7.13947 13.6683 8.2308 14.1155 9.5193 14.1155Z"/>
        </g>
    </symbol>

    <symbol width="24" height="24" viewBox="0 0 24 24" id="account-icon">
        <mask id="mask0_40002088_495" style="mask-type:alpha" maskUnits="userSpaceOnUse" x="0" y="0" width="24" height="24">
        <rect width="24" height="24"/>
        </mask>
        <g mask="url(#mask0_40002088_495)">
        <path d="M6.023 17.2923C6.873 16.6616 7.799 16.1635 8.801 15.798C9.80283 15.4327 10.8692 15.25 12 15.25C13.1308 15.25 14.1972 15.4327 15.199 15.798C16.201 16.1635 17.127 16.6616 17.977 17.2923C18.5987 16.6089 19.0912 15.8179 19.4548 14.9192C19.8183 14.0206 20 13.0475 20 12C20 9.78333 19.2208 7.89583 17.6625 6.3375C16.1042 4.77917 14.2167 4 12 4C9.78333 4 7.89583 4.77917 6.3375 6.3375C4.77917 7.89583 4 9.78333 4 12C4 13.0475 4.18175 14.0206 4.54525 14.9192C4.90875 15.8179 5.40133 16.6089 6.023 17.2923ZM12.0003 12.75C11.0873 12.75 10.3173 12.4367 9.6905 11.81C9.0635 11.1832 8.75 10.4133 8.75 9.50025C8.75 8.58725 9.06333 7.81733 9.69 7.1905C10.3168 6.5635 11.0868 6.25 11.9998 6.25C12.9128 6.25 13.6827 6.56333 14.3095 7.19C14.9365 7.81683 15.25 8.58675 15.25 9.49975C15.25 10.4127 14.9367 11.1827 14.31 11.8095C13.6832 12.4365 12.9133 12.75 12.0003 12.75ZM12 21.5C10.6808 21.5 9.44333 21.2519 8.2875 20.7558C7.13167 20.2596 6.12625 19.5839 5.27125 18.7288C4.41608 17.8738 3.74042 16.8683 3.24425 15.7125C2.74808 14.5567 2.5 13.3192 2.5 12C2.5 10.6808 2.74808 9.44333 3.24425 8.2875C3.74042 7.13167 4.41608 6.12625 5.27125 5.27125C6.12625 4.41608 7.13167 3.74042 8.2875 3.24425C9.44333 2.74808 10.6808 2.5 12 2.5C13.3192 2.5 14.5567 2.74808 15.7125 3.24425C16.8683 3.74042 17.8738 4.41608 18.7288 5.27125C19.5839 6.12625 20.2596 7.13167 20.7558 8.2875C21.2519 9.44333 21.5 10.6808 21.5 12C21.5 13.3192 21.2519 14.5567 20.7558 15.7125C20.2596 16.8683 19.5839 17.8738 18.7288 18.7288C17.8738 19.5839 16.8683 20.2596 15.7125 20.7558C14.5567 21.2519 13.3192 21.5 12 21.5ZM12 20C12.9025 20 13.7727 19.8548 14.6105 19.5645C15.4483 19.274 16.1923 18.8679 16.8422 18.3462C16.1923 17.8436 15.458 17.4519 14.6395 17.1712C13.8208 16.8904 12.941 16.75 12 16.75C11.059 16.75 10.1776 16.8888 9.35575 17.1663C8.53392 17.4439 7.80125 17.8372 7.15775 18.3462C7.80775 18.8679 8.55167 19.274 9.3895 19.5645C10.2273 19.8548 11.0975 20 12 20ZM12 11.25C12.4975 11.25 12.9135 11.0827 13.248 10.748C13.5827 10.4135 13.75 9.9975 13.75 9.5C13.75 9.0025 13.5827 8.5865 13.248 8.252C12.9135 7.91733 12.4975 7.75 12 7.75C11.5025 7.75 11.0865 7.91733 10.752 8.252C10.4173 8.5865 10.25 9.0025 10.25 9.5C10.25 9.9975 10.4173 10.4135 10.752 10.748C11.0865 11.0827 11.5025 11.25 12 11.25Z"/>
        </g>
    </symbol>

    <symbol width="24" height="24" viewBox="0 0 24 24" id="bag-icon">
        <mask id="mask0_40002088_496" style="mask-type:alpha" maskUnits="userSpaceOnUse" x="0" y="0" width="24" height="24">
        <rect width="24" height="24"/>
        </mask>
        <g mask="url(#mask0_40002088_496)">
        <path d="M5.30775 21.5C4.80908 21.5 4.38308 21.3234 4.02975 20.9703C3.67658 20.6169 3.5 20.1909 3.5 19.6923V8.30775C3.5 7.80908 3.67658 7.38308 4.02975 7.02975C4.38308 6.67658 4.80908 6.5 5.30775 6.5H7.5C7.5 5.25133 7.93783 4.18917 8.8135 3.3135C9.68917 2.43783 10.7513 2 12 2C13.2487 2 14.3108 2.43783 15.1865 3.3135C16.0622 4.18917 16.5 5.25133 16.5 6.5H18.6923C19.1909 6.5 19.6169 6.67658 19.9703 7.02975C20.3234 7.38308 20.5 7.80908 20.5 8.30775V19.6923C20.5 20.1909 20.3234 20.6169 19.9703 20.9703C19.6169 21.3234 19.1909 21.5 18.6923 21.5H5.30775ZM5.30775 20H18.6923C18.7692 20 18.8398 19.9679 18.9038 19.9038C18.9679 19.8398 19 19.7693 19 19.6923V8.30775C19 8.23075 18.9679 8.16025 18.9038 8.09625C18.8398 8.03208 18.7692 8 18.6923 8H5.30775C5.23075 8 5.16025 8.03208 5.09625 8.09625C5.03208 8.16025 5 8.23075 5 8.30775V19.6923C5 19.7693 5.03208 19.8398 5.09625 19.9038C5.16025 19.9679 5.23075 20 5.30775 20ZM12 13.5C13.2487 13.5 14.3108 13.0622 15.1865 12.1865C16.0622 11.3108 16.5 10.2487 16.5 9H15C15 9.83333 14.7083 10.5417 14.125 11.125C13.5417 11.7083 12.8333 12 12 12C11.1667 12 10.4583 11.7083 9.875 11.125C9.29167 10.5417 9 9.83333 9 9H7.5C7.5 10.2487 7.93783 11.3108 8.8135 12.1865C9.68917 13.0622 10.7513 13.5 12 13.5ZM9 6.5H15C15 5.66667 14.7083 4.95833 14.125 4.375C13.5417 3.79167 12.8333 3.5 12 3.5C11.1667 3.5 10.4583 3.79167 9.875 4.375C9.29167 4.95833 9 5.66667 9 6.5Z"/>
        </g>
    </symbol>

    <symbol width="24" height="24" viewBox="0 0 24 24" id="burger-icon">
        <mask id="mask0_40002088_630" style="mask-type:alpha" maskUnits="userSpaceOnUse" x="0" y="0" width="24" height="24">
        <rect width="24" height="24"/>
        </mask>
        <g mask="url(#mask0_40002088_630)">
        <path d="M3.5 7V5.5H20.5V7H3.5ZM3.5 18.5V17H20.5V18.5H3.5ZM3.5 12.75V11.25H20.5V12.75H3.5Z"/>
        </g>
    </symbol>

    <symbol width="24" height="24" viewBox="0 0 24 24" id="close-icon">
        <mask id="mask0_40002175_1768" style="mask-type:alpha" maskUnits="userSpaceOnUse" x="0" y="0" width="24" height="24">
        <rect width="24" height="24"/>
        </mask>
        <g mask="url(#mask0_40002175_1768)">
        <path d="M6.4 18.6537L5.34625 17.5999L10.9463 11.9999L5.34625 6.39994L6.4 5.34619L12 10.9462L17.6 5.34619L18.6538 6.39994L13.0538 11.9999L18.6538 17.5999L17.6 18.6537L12 13.0537L6.4 18.6537Z"/>
        </g>
    </symbol>
</svg>