<svg xmlns="http://www.w3.org/2000/svg">
    <symbol width="24" height="24" viewBox="0 0 24 24" id="star-icon">
        <mask id="mask0_17_2281" style="mask-type:alpha" maskUnits="userSpaceOnUse" x="0" y="0" width="24" height="24">
        <rect width="24" height="24"/>
        </mask>
        <g mask="url(#mask0_17_2281)">
        <path d="M6.575 19.9615L8.00775 13.7922L3.22125 9.64424L9.5365 9.09624L12 3.27899L14.4635 9.09624L20.7788 9.64424L15.9923 13.7922L17.425 19.9615L12 16.6885L6.575 19.9615Z"/>
        </g>
    </symbol>

    <symbol width="24" height="24" viewBox="0 0 24 24" id="check-icon">
        <mask id="mask0_40002147_9442" style="mask-type:alpha" maskUnits="userSpaceOnUse" x="0" y="0" width="24" height="24">
        <rect width="24" height="24"/>
        </mask>
        <g mask="url(#mask0_40002147_9442)">
        <path d="M9.54995 17.6537L4.21545 12.3192L5.28445 11.25L9.54995 15.5155L18.7155 6.34998L19.7845 7.41923L9.54995 17.6537Z"/>
        </g>
    </symbol>

    <symbol width="24" height="24" viewBox="0 0 24 24" id="speed-truck-icon">
        <mask id="mask0_40002133_653" style="mask-type:alpha" maskUnits="userSpaceOnUse" x="0" y="0" width="24" height="24">
        <rect width="24" height="24"/>
        </mask>
        <g mask="url(#mask0_40002133_653)">
        <path d="M7.25005 19.5C6.48722 19.5 5.83821 19.2323 5.30305 18.697C4.76771 18.1618 4.50005 17.5128 4.50005 16.75H2.1348L2.4693 15.25H5.01555C5.24755 14.8692 5.56005 14.5657 5.95305 14.3395C6.34588 14.1132 6.77821 14 7.25005 14C7.72188 14 8.1543 14.1132 8.5473 14.3395C8.94013 14.5657 9.25263 14.8692 9.4848 15.25H13.8808L16.029 6H5.07905L5.14055 5.7385C5.21488 5.37433 5.39271 5.07692 5.67405 4.84625C5.95555 4.61542 6.28663 4.5 6.6673 4.5H17.9038L17.0365 8.25H19.5385L22.3943 12.0578L21.4615 16.75H19.8845C19.8845 17.5128 19.617 18.1618 19.0818 18.697C18.5465 19.2323 17.8975 19.5 17.1348 19.5C16.372 19.5 15.7229 19.2323 15.1875 18.697C14.6524 18.1618 14.3848 17.5128 14.3848 16.75H10C10 17.5128 9.73238 18.1618 9.19705 18.697C8.66188 19.2323 8.01288 19.5 7.25005 19.5ZM15.9058 13.125H20.6443L20.7828 12.4173L18.7885 9.75H16.6923L15.9058 13.125ZM15.8828 6.5885L16.029 6L13.8808 15.25L14.027 14.6615L15.8828 6.5885ZM1.08655 13.1615L1.46155 11.6615H6.45205L6.07705 13.1615H1.08655ZM3.08655 9.5885L3.46155 8.0885H9.45205L9.07705 9.5885H3.08655ZM7.25005 18C7.59755 18 7.89272 17.8785 8.13555 17.6355C8.37855 17.3927 8.50005 17.0975 8.50005 16.75C8.50005 16.4025 8.37855 16.1073 8.13555 15.8645C7.89272 15.6215 7.59755 15.5 7.25005 15.5C6.90255 15.5 6.60738 15.6215 6.36455 15.8645C6.12155 16.1073 6.00005 16.4025 6.00005 16.75C6.00005 17.0975 6.12155 17.3927 6.36455 17.6355C6.60738 17.8785 6.90255 18 7.25005 18ZM17.1348 18C17.4821 18 17.7773 17.8785 18.0203 17.6355C18.2633 17.3927 18.3848 17.0975 18.3848 16.75C18.3848 16.4025 18.2633 16.1073 18.0203 15.8645C17.7773 15.6215 17.4821 15.5 17.1348 15.5C16.7873 15.5 16.492 15.6215 16.249 15.8645C16.006 16.1073 15.8845 16.4025 15.8845 16.75C15.8845 17.0975 16.006 17.3927 16.249 17.6355C16.492 17.8785 16.7873 18 17.1348 18Z"/>
        </g>
    </symbol>

    <symbol width="24" height="24" viewBox="0 0 24 24" id="replay-icon">
        <mask id="mask0_40002133_655" style="mask-type:alpha" maskUnits="userSpaceOnUse" x="0" y="0" width="24" height="24">
        <rect width="24" height="24"/>
        </mask>
        <g mask="url(#mask0_40002133_655)">
        <path d="M12 21.5C10.8205 21.5 9.71542 21.2769 8.68475 20.8307C7.65392 20.3846 6.75517 19.7782 5.9885 19.0115C5.22183 18.2448 4.61542 17.3461 4.16925 16.3152C3.72308 15.2846 3.5 14.1795 3.5 13H5C5 14.95 5.67917 16.6042 7.0375 17.9625C8.39583 19.3208 10.05 20 12 20C13.95 20 15.6042 19.3208 16.9625 17.9625C18.3208 16.6042 19 14.95 19 13C19 11.05 18.3208 9.39582 16.9625 8.03749C15.6042 6.67916 13.95 5.99999 12 5.99999H11.7345L13.323 7.58849L12.2692 8.67299L8.84625 5.24049L12.2885 1.80774L13.3422 2.89224L11.7345 4.49999H12C13.1795 4.49999 14.2846 4.72307 15.3152 5.16924C16.3461 5.61541 17.2448 6.22182 18.0115 6.98849C18.7782 7.75516 19.3846 8.65391 19.8307 9.68474C20.2769 10.7154 20.5 11.8205 20.5 13C20.5 14.1795 20.2769 15.2846 19.8307 16.3152C19.3846 17.3461 18.7782 18.2448 18.0115 19.0115C17.2448 19.7782 16.3461 20.3846 15.3152 20.8307C14.2846 21.2769 13.1795 21.5 12 21.5Z"/>
        </g>
    </symbol>

    <symbol width="24" height="24" viewBox="0 0 24 24" id="verified-icon">
        <mask id="mask0_40002133_656" style="mask-type:alpha" maskUnits="userSpaceOnUse" x="0" y="0" width="24" height="24">
        <rect width="24" height="24"/>
        </mask>
        <g mask="url(#mask0_40002133_656)">
        <path d="M8.81147 21.8653L7.02697 18.8578L3.63847 18.1153L3.96922 14.627L1.67322 12L3.96922 9.37301L3.63847 5.88477L7.02697 5.14227L8.81147 2.13477L12 3.48851L15.1885 2.13477L16.973 5.14227L20.3615 5.88477L20.0307 9.37301L22.3267 12L20.0307 14.627L20.3615 18.1153L16.973 18.8578L15.1885 21.8653L12 20.5115L8.81147 21.8653ZM9.44997 19.95L12 18.8693L14.5807 19.95L16 17.55L18.75 16.9193L18.5 14.1L20.35 12L18.5 9.86927L18.75 7.05002L16 6.45002L14.55 4.05002L12 5.13076L9.41922 4.05002L7.99997 6.45002L5.24997 7.05002L5.49997 9.86927L3.64997 12L5.49997 14.1L5.24997 16.95L7.99997 17.55L9.44997 19.95ZM10.95 15.2038L16.2537 9.90002L15.2 8.81552L10.95 13.0655L8.79997 10.9463L7.74622 12L10.95 15.2038Z"/>
        </g>
    </symbol>
</svg>